<svg width="64" height="64" viewBox="0 0 64 64" fill="none" xmlns="http://www.w3.org/2000/svg">
<g clip-path="url(#clip0_29_542)">
<path d="M54.5317 21.0698C52.977 21.309 51.4481 20.5058 50.763 19.0898L44.9487 7.07316C44.4336 6.00868 43.474 5.22665 42.3274 4.93711L37.1968 3.64145C36.2019 3.39023 35.1623 3.83794 34.6613 4.73336C34.0899 5.75463 32.8354 6.17371 31.7649 5.70098L27.8427 3.96901C27.0693 3.62752 26.5156 2.92486 26.3644 2.09312C26.144 0.881037 25.0883 0 23.8564 0H16.9723C15.8589 0 14.7958 0.464111 14.0389 1.28069L6.40855 9.51199C5.72297 10.2516 5.34204 11.2228 5.34204 12.2313V22.5829C5.34204 23.6438 5.76347 24.6612 6.51361 25.4113L10.2776 29.1753C11.2978 30.1955 12.7885 30.5872 14.1785 30.2004L19.629 28.6834C20.7044 28.3841 21.856 28.5478 22.8054 29.1349L23.9628 29.8506C24.7969 30.3665 25.4125 31.1708 25.6925 32.1108L28.5962 41.8594C28.7878 42.5025 28.8145 43.1834 28.6739 43.8394L27.577 48.9584C27.4172 49.7042 27.474 50.4802 27.7406 51.1948L31.5479 61.3984C32.1316 62.9628 33.6257 64 35.2955 64H36.672C37.793 64 38.8625 63.5296 39.6201 62.7034L44.4322 57.4556C44.8262 57.026 45.1215 56.5155 45.2974 55.9598L46.7065 51.5102C46.9001 50.8988 47.2379 50.3429 47.6914 49.8894L50.7724 46.8084C51.5438 46.037 51.9667 44.984 51.9431 43.8933L51.7925 36.9432C51.7747 36.1225 52.0098 35.3163 52.4659 34.6339L56.35 28.8224C56.5736 28.4878 56.7454 28.1214 56.8597 27.7355L58.6195 21.793C58.6451 21.7066 58.658 21.617 58.658 21.527C58.658 20.9528 58.1463 20.5137 57.5788 20.601L54.5317 21.0698Z" fill="#97BC59"/>
</g>
<defs>
<clipPath id="clip0_29_542">
<rect width="64" height="64" fill="white"/>
</clipPath>
</defs>
</svg>
