<svg width="64" height="76" viewBox="0 0 64 76" fill="none" xmlns="http://www.w3.org/2000/svg">
<path d="M58.4395 25.0488C56.7031 25.316 54.9957 24.4189 54.2306 22.8376L47.0922 8.08451C46.5772 7.02003 45.6175 6.238 44.471 5.94846L38.0392 4.32423C36.8578 4.0259 35.6233 4.55756 35.0283 5.62087C34.3497 6.83363 32.86 7.33128 31.5888 6.76991L26.9312 4.7132C26.0128 4.30768 25.3553 3.47327 25.1757 2.48558C24.914 1.04623 23.6604 0 22.1974 0H13.6952C12.5818 0 11.5187 0.464111 10.7617 1.28069L1.27818 11.5112C0.592594 12.2508 0.21167 13.222 0.21167 14.2305V27.1278C0.21167 28.1887 0.633097 29.2061 1.38324 29.9563L6.3822 34.9552C7.40246 35.9755 8.8931 36.3672 10.2831 35.9803L17.4938 33.9735C18.5692 33.6742 19.7207 33.8379 20.6701 34.425L22.5666 35.5978C23.4008 36.1136 24.0163 36.918 24.2963 37.8579L27.8808 49.8918C28.0723 50.5349 28.099 51.2158 27.9584 51.8718L26.5698 58.3522C26.41 59.0981 26.4668 59.874 26.7334 60.5887L31.5132 73.3984C32.0969 74.9628 33.591 76 35.2608 76H37.7458C38.8668 76 39.9363 75.5296 40.694 74.7034L46.7434 68.1062C47.1374 67.6766 47.4326 67.1661 47.6086 66.6104L49.3872 60.9939C49.5808 60.3825 49.9186 59.8266 50.3721 59.3731L54.3867 55.3585C55.1581 54.5871 55.5809 53.5341 55.5573 52.4435L55.3665 43.6336C55.3487 42.813 55.5838 42.0068 56.0399 41.3243L60.8468 34.1319C61.0704 33.7973 61.2423 33.4309 61.3565 33.0451L63.4786 25.8791C63.509 25.7766 63.5244 25.6702 63.5244 25.5633C63.5244 24.8814 62.9167 24.3601 62.2428 24.4637L58.4395 25.0488Z" fill="#97BC59"/>
</svg>
