<svg width="71" height="71" viewBox="0 0 71 71" fill="none" xmlns="http://www.w3.org/2000/svg">
<g clip-path="url(#clip0_29_527)">
<path d="M10.8609 8.37872C10.859 8.37872 10.8569 8.37872 10.8549 8.37872C10.1834 8.37872 9.55184 8.64049 9.07492 9.11622C8.59274 9.5972 8.32715 10.2376 8.32715 10.9194V49.0169C8.32715 50.414 9.46817 51.5533 10.871 51.5569C16.7848 51.571 26.6928 52.8036 33.5279 59.9565V20.0864C33.5279 19.6128 33.407 19.1679 33.1787 18.7997C27.5687 9.76526 16.7881 8.39259 10.8609 8.37872Z" fill="#97BC59"/>
<path d="M62.6732 49.0169V10.9192C62.6732 10.2374 62.4076 9.59696 61.9254 9.11597C61.4485 8.64025 60.8164 8.37848 60.1456 8.37848C60.1435 8.37848 60.1413 8.37848 60.1394 8.37848C54.2125 8.39258 43.4319 9.76525 37.8217 18.7997C37.5934 19.1679 37.4727 19.6128 37.4727 20.0863V59.9562C44.3078 52.8034 54.2158 51.5708 60.1296 51.5567C61.5322 51.5531 62.6732 50.4137 62.6732 49.0169Z" fill="#97BC59"/>
<path d="M68.4598 17.1646H66.6176V49.0169C66.6176 52.5839 63.7114 55.4925 60.1389 55.5014C55.1227 55.5133 46.8518 56.4942 40.9941 62.0382C51.1249 59.5577 61.8046 61.1702 67.891 62.5572C68.651 62.7303 69.4363 62.5515 70.0452 62.0662C70.6519 61.5821 71 60.8584 71 60.0817V19.7048C71.0002 18.3042 69.8604 17.1646 68.4598 17.1646Z" fill="#97BC59"/>
<path d="M4.38241 49.0169V17.1646H2.54023C1.13983 17.1646 0 18.3042 0 19.7048V60.081C0 60.858 0.348068 61.5814 0.954798 62.0655C1.5632 62.5505 2.34779 62.73 3.10895 62.5565C9.19537 61.1692 19.8753 59.557 30.0056 62.0375C24.1482 56.4937 15.8773 55.5131 10.8611 55.5012C7.28888 55.4926 4.38241 52.5839 4.38241 49.0169Z" fill="#97BC59"/>
<path d="M21.2827 17.1051V15.8751C21.1094 15.8751 20.9361 15.9084 20.7627 15.9751C20.5894 16.0417 20.4527 16.1617 20.3527 16.3351C20.2527 16.5084 20.2027 16.7151 20.2027 16.9551C20.2027 17.1751 20.2561 17.3584 20.3627 17.5051C20.4761 17.6517 20.6294 17.7251 20.8227 17.7251C21.0161 17.7251 21.1794 17.6517 21.3127 17.5051C21.2927 17.3851 21.2827 17.2517 21.2827 17.1051ZM23.4627 17.8351H23.6327V18.0151C23.4594 18.1684 23.2861 18.2817 23.1127 18.3551C22.9394 18.4284 22.7127 18.4651 22.4327 18.4651C22.2194 18.4651 22.0194 18.4117 21.8327 18.3051C21.6527 18.1984 21.5127 18.0351 21.4127 17.8151C21.2461 18.0084 21.0327 18.1651 20.7727 18.2851C20.5194 18.4051 20.2361 18.4651 19.9227 18.4651C19.4961 18.4651 19.1594 18.3384 18.9127 18.0851C18.6727 17.8317 18.5527 17.5184 18.5527 17.1451C18.5527 16.8117 18.6427 16.5251 18.8227 16.2851C19.0094 16.0451 19.2694 15.8584 19.6027 15.7251C19.9427 15.5851 20.3327 15.5151 20.7727 15.5151C20.9661 15.5151 21.1361 15.5251 21.2827 15.5451V15.0451C21.2827 14.7251 21.2794 14.4751 21.2727 14.2951C21.2661 14.1084 21.2394 13.9617 21.1927 13.8551C21.1461 13.7484 21.0827 13.6651 21.0027 13.6051C20.9227 13.5451 20.7994 13.5151 20.6327 13.5151C20.5061 13.5151 20.3794 13.5451 20.2527 13.6051C20.1327 13.6584 20.0427 13.7284 19.9827 13.8151C20.0561 13.8817 20.1161 13.9684 20.1627 14.0751C20.2094 14.1817 20.2327 14.2851 20.2327 14.3851C20.2327 14.5984 20.1627 14.7817 20.0227 14.9351C19.8894 15.0817 19.7127 15.1551 19.4927 15.1551C19.2861 15.1551 19.1094 15.0851 18.9627 14.9451C18.8227 14.7984 18.7527 14.6217 18.7527 14.4151C18.7527 14.2817 18.7861 14.1451 18.8527 14.0051C18.9194 13.8584 19.0427 13.7184 19.2227 13.5851C19.4094 13.4517 19.6394 13.3551 19.9127 13.2951C20.1861 13.2351 20.4427 13.2051 20.6827 13.2051C21.1494 13.2051 21.5494 13.2617 21.8827 13.3751C22.2227 13.4817 22.4827 13.6751 22.6627 13.9551C22.8427 14.2284 22.9327 14.6717 22.9327 15.2851V17.3351C22.9327 17.6684 23.1094 17.8351 23.4627 17.8351ZM23.8672 30.6051C23.8672 30.9717 23.8105 31.3317 23.6972 31.6851C23.5905 32.0384 23.4105 32.3484 23.1572 32.6151C22.9039 32.8817 22.5805 33.0951 22.1872 33.2551C21.8005 33.4084 21.3539 33.4851 20.8472 33.4851C20.5672 33.4851 20.2272 33.4551 19.8272 33.3951C19.4272 33.3351 19.0505 33.2317 18.6972 33.0851V27.4051C18.6972 27.2051 18.6505 27.0317 18.5572 26.8851C18.4705 26.7384 18.3705 26.6384 18.2572 26.5851V26.4351L20.3472 25.8051V29.2251C20.4605 29.0117 20.6072 28.8217 20.7872 28.6551C20.9739 28.4884 21.1705 28.3717 21.3772 28.3051C21.5839 28.2384 21.7739 28.2051 21.9472 28.2051C22.3205 28.2051 22.6472 28.3051 22.9272 28.5051C23.2072 28.6984 23.4339 28.9784 23.6072 29.3451C23.7805 29.7051 23.8672 30.1251 23.8672 30.6051ZM20.3472 32.7551C20.4139 32.8484 20.5172 32.9384 20.6572 33.0251C20.8039 33.1051 20.9605 33.1451 21.1272 33.1451C21.3605 33.1451 21.5539 33.0684 21.7072 32.9151C21.8672 32.7551 21.9872 32.5384 22.0672 32.2651C22.1539 31.9917 22.1972 31.6617 22.1972 31.2751C22.1972 30.6217 22.1005 30.1217 21.9072 29.7751C21.7139 29.4284 21.4472 29.2551 21.1072 29.2551C20.9339 29.2551 20.6805 29.3251 20.3472 29.4651V32.7551ZM23.4669 47.2051C23.2136 47.5917 22.8902 47.9051 22.4969 48.1451C22.1102 48.3784 21.6769 48.4951 21.1969 48.4951C20.9436 48.4951 20.6736 48.4551 20.3869 48.3751C20.1002 48.2951 19.8102 48.1417 19.5169 47.9151C19.2302 47.6884 19.0102 47.3951 18.8569 47.0351C18.7102 46.6751 18.6369 46.3051 18.6369 45.9251C18.6369 45.5251 18.7069 45.1551 18.8469 44.8151C18.9869 44.4751 19.1802 44.1851 19.4269 43.9451C19.6736 43.7051 19.9602 43.5217 20.2869 43.3951C20.6136 43.2684 20.9569 43.2051 21.3169 43.2051C21.7502 43.2051 22.1202 43.2651 22.4269 43.3851C22.7402 43.4984 22.9836 43.6617 23.1569 43.8751C23.3369 44.0817 23.4269 44.3251 23.4269 44.6051C23.4269 44.8384 23.3436 45.0417 23.1769 45.2151C23.0102 45.3817 22.8102 45.4651 22.5769 45.4651C22.3369 45.4651 22.1369 45.3817 21.9769 45.2151C21.8169 45.0417 21.7369 44.8417 21.7369 44.6151C21.7369 44.3284 21.8369 44.1017 22.0369 43.9351C21.9969 43.8284 21.9236 43.7384 21.8169 43.6651C21.7169 43.5851 21.5836 43.5451 21.4169 43.5451C21.2569 43.5451 21.0936 43.5917 20.9269 43.6851C20.7602 43.7717 20.6136 43.9617 20.4869 44.2551C20.3669 44.5417 20.3069 44.8884 20.3069 45.2951C20.3069 45.5617 20.3402 45.8317 20.4069 46.1051C20.4736 46.3784 20.5802 46.6251 20.7269 46.8451C20.8736 47.0584 21.0569 47.2351 21.2769 47.3751C21.5036 47.5084 21.7536 47.5751 22.0269 47.5751C22.2402 47.5751 22.4736 47.5284 22.7269 47.4351C22.9802 47.3351 23.1936 47.2184 23.3669 47.0851L23.4669 47.2051Z" fill="white"/>
</g>
<defs>
<clipPath id="clip0_29_527">
<rect width="71" height="71" fill="white"/>
</clipPath>
</defs>
</svg>
