<svg width="55" height="67" viewBox="0 0 55 67" fill="none" xmlns="http://www.w3.org/2000/svg">
<g clip-path="url(#clip0_29_433)">
<path d="M53.7373 14.4753C53.0032 14.9775 51.9461 15.7456 50.7715 16.6318C47.6295 18.552 44.693 20.7086 41.9327 23.19C41.4923 23.6036 41.0518 24.0467 40.6407 24.4603L40.6113 24.4899C38.7613 25.9669 35.7368 30.9299 34.0924 33.7068C33.8868 34.0613 33.6519 34.4158 33.4463 34.7998C33.4463 34.7998 34.7677 29.571 33.1821 22.8355C33.1527 22.7469 33.1527 22.6583 33.1233 22.5697C33.094 22.5106 33.094 22.422 33.0646 22.3629C33.0059 22.1265 32.9471 21.8902 32.859 21.6539C32.771 21.3585 32.6829 21.0926 32.5948 20.8267C32.5067 20.5904 32.4479 20.3245 32.3598 20.0882C32.3305 19.97 32.2718 19.8519 32.2424 19.7632C31.3615 17.3113 30.0694 14.7707 28.1901 12.2302C26.1933 9.4828 23.8441 6.97178 21.3481 4.57892C20.8195 4.04718 20.3203 3.60406 19.8799 3.22002C19.8799 3.22002 19.8505 3.22002 19.8505 3.19048C19.3807 2.7769 18.9696 2.4224 18.6172 2.15653C17.149 0.797619 16.8553 0 16.8553 0C16.3267 1.12257 15.9744 2.0679 15.6807 2.80644C15.5339 3.13139 15.4164 3.54497 15.299 3.9881C15.2109 4.25397 15.1815 4.40168 15.1815 4.40168C15.0053 5.02205 14.8292 5.76058 14.653 6.61728C12.3332 16.7795 19.087 26.3805 29.1885 27.06C28.5718 23.4854 26.2226 20.7381 24.8719 17.5476C24.8719 17.5476 29.5996 20.0882 30.8035 27.2963C30.9503 28.2121 31.0678 29.1869 31.1559 30.2504V30.2209C31.1853 30.3391 31.1853 30.4868 31.1853 30.6049C31.1853 30.7231 31.2146 30.8708 31.2146 30.989C31.2146 32.5251 31.2146 34.209 31.2734 34.6226C31.2734 35.1248 31.244 35.6565 31.2146 36.1883C31.0972 38.6698 30.921 41.2399 30.7742 44.4008C27.1329 37.9017 22.5227 33.3228 16.9728 30.28C16.9728 30.28 6.10785 24.1058 0 25.2875C0 25.2875 0.939669 46.7346 18.6172 43.9281C20.4672 43.7804 22.3171 43.3373 23.9322 42.5101C22.9044 41.6239 21.9648 40.7672 20.9664 39.9991C18.2061 37.9903 15.299 36.3064 12.1276 35.0362C12.5681 34.8589 13.0085 34.6817 13.4196 34.534C15.0641 35.1248 16.7379 35.6565 18.3823 36.3064C23.2274 38.2562 26.5456 42.1556 29.5996 46.0551C31.0091 47.8571 29.6877 50.1318 28.9829 52.3474C28.4543 52.0816 28.0139 51.6975 27.6321 51.2249C27.0155 50.8408 26.6044 50.1909 26.1933 49.6001C25.7822 49.0093 25.3711 48.448 25.0774 47.8276C25.0187 47.7685 24.9893 47.6799 24.9306 47.6208C24.6076 47.1481 24.1965 46.5573 23.4036 46.2914C22.4052 45.9665 21.4068 46.5869 20.7021 46.9709C19.41 47.6503 18.1474 48.5071 17.9124 49.5705C17.7069 50.4272 18.5291 51.2839 18.0886 52.1111C17.6775 52.8792 16.4442 52.9383 15.299 53.0564C13.7427 53.2041 12.3038 53.6768 11.1879 54.3563C9.95462 55.0948 9.2205 56.0401 9.07368 57.1036C8.89749 58.1376 9.07368 59.1715 8.45702 60.1464C7.98719 60.9145 7.22371 61.5939 6.19594 62.1257C5.49119 62.4802 4.8158 62.746 4.46343 63.2482C10.0133 65.6411 16.8259 67.0591 24.1965 67.0591C34.8265 67.0591 44.3113 64.1049 50.5072 59.526C50.4778 59.4965 50.4485 59.4965 50.4191 59.4965C49.0683 58.8466 47.8938 58.0194 47.0128 57.1332C46.1906 56.2765 45.7208 55.3607 45.2509 54.4153C44.7224 53.2632 43.8414 51.9339 41.4335 52.052C39.6129 52.1406 38.4971 52.9678 37.1463 53.5882C35.9717 54.1199 34.6797 54.2381 33.2702 53.9722C32.3599 53.795 31.5376 53.5291 30.7742 53.2041C31.4202 50.634 32.0368 48.0639 32.5948 45.4643C34.063 38.9356 39.4367 31.373 44.1938 29.5119C41.6684 33.0273 38.4677 35.8042 37.1463 39.9696C46.6017 39.4674 52.8564 34.2681 54.4421 26.6759V26.6464C54.4714 26.4691 54.5302 26.2919 54.5595 26.1146C54.5595 26.0851 54.5595 26.0556 54.5889 26.026C54.6183 25.8783 54.6183 25.7601 54.6476 25.6124C54.677 25.4647 54.7064 25.317 54.7064 25.1693C55.6754 18.2862 53.7373 14.4753 53.7373 14.4753Z" fill="#97BC59"/>
</g>
<defs>
<clipPath id="clip0_29_433">
<rect width="55" height="67" fill="white"/>
</clipPath>
</defs>
</svg>
