<svg width="231" height="40" viewBox="0 0 231 40" fill="none" xmlns="http://www.w3.org/2000/svg">
<g clip-path="url(#clip0_22_230)">
<path d="M19.7617 3.29973C10.6105 3.43174 5.836 8.84429 7.82539 15.973C8.8864 19.8014 11.6715 22.3096 15.5177 22.7057C19.7617 23.2337 24.1384 23.1017 28.3824 23.2337C29.8413 23.2337 31.4328 22.8377 32.6264 23.4978C33.9527 24.1578 35.5442 25.4779 35.9421 26.7981C36.34 28.5143 35.1463 30.2304 32.8917 30.3624C24.4036 30.3624 15.9156 30.4945 7.42751 30.3624C5.17287 30.3624 2.12247 26.402 1.72459 22.9697C0.928837 16.237 0.530959 9.37234 0.000454897 2.63967C-0.132171 0.395441 0.928837 -0.264625 3.05085 0.131414C8.35589 1.18752 13.7936 2.11161 19.7617 3.29973Z" fill="#88AA4E"/>
<path d="M30.9018 36.9637C40.053 37.4918 44.0318 29.1749 42.0424 23.6304C40.5835 19.4059 36.7374 16.8977 31.0345 16.7657C26.9231 16.6337 22.8117 16.6337 18.7003 16.7657C16.1804 16.7657 13.7931 16.2376 13.7931 13.2013C13.7931 10.165 16.0477 9.63696 18.7003 9.63696C25.5968 9.63696 32.3607 9.63696 39.2573 9.63696C44.4297 9.63696 47.6127 12.2772 48.1432 17.5578C48.8064 24.1584 49.2042 30.6271 49.7347 37.2277C49.8674 39.604 48.939 40.396 46.5517 40C41.5119 38.9439 36.2069 37.8878 30.9018 36.9637Z" fill="#88AA4E"/>
</g>
<path d="M74.6287 25.208C74.5327 20.336 67.1647 21.848 67.1647 19.424C67.1647 18.656 67.8127 18.152 69.0607 18.152C70.3807 18.152 71.1967 18.848 71.2927 19.88H74.5087C74.3167 17.24 72.3727 15.488 69.1567 15.488C65.8687 15.488 63.9007 17.264 63.9007 19.472C63.9007 24.344 71.4127 22.832 71.4127 25.208C71.4127 25.976 70.6927 26.576 69.3727 26.576C68.0287 26.576 67.0927 25.808 66.9727 24.8H63.5887C63.7327 27.272 66.0607 29.216 69.3967 29.216C72.6367 29.216 74.6287 27.488 74.6287 25.208ZM84.0588 18.248C85.7868 18.248 87.1788 19.352 87.2268 21.104H80.9148C81.1788 19.28 82.4508 18.248 84.0588 18.248ZM90.3708 24.824H86.7468C86.3148 25.712 85.5228 26.432 84.0828 26.432C82.4028 26.432 81.0588 25.328 80.8908 23.36H90.6108C90.6828 22.928 90.7068 22.496 90.7068 22.064C90.7068 18.104 87.9948 15.488 84.1548 15.488C80.2188 15.488 77.4828 18.152 77.4828 22.352C77.4828 26.528 80.2908 29.216 84.1548 29.216C87.4428 29.216 89.6508 27.272 90.3708 24.824ZM93.2553 22.352C93.2553 26.528 95.9913 29.216 99.8313 29.216C103.143 29.216 105.375 27.344 106.095 24.512H102.471C102.063 25.712 101.199 26.336 99.8073 26.336C97.9353 26.336 96.6873 24.944 96.6873 22.352C96.6873 19.76 97.9353 18.344 99.8073 18.344C101.199 18.344 102.087 19.064 102.471 20.192H106.095C105.375 17.216 103.143 15.488 99.8313 15.488C95.9913 15.488 93.2553 18.176 93.2553 22.352ZM122.357 22.352C122.357 18.152 119.357 15.488 115.517 15.488C111.677 15.488 108.677 18.152 108.677 22.352C108.677 26.528 111.581 29.216 115.421 29.216C119.285 29.216 122.357 26.528 122.357 22.352ZM112.085 22.352C112.085 19.688 113.693 18.416 115.469 18.416C117.245 18.416 118.901 19.688 118.901 22.352C118.901 24.992 117.197 26.288 115.421 26.288C113.621 26.288 112.085 24.992 112.085 22.352ZM135.093 29H138.453V21.2C138.453 17.528 136.245 15.512 133.149 15.512C131.445 15.512 130.005 16.232 129.141 17.36V15.704H125.781V29H129.141V21.656C129.141 19.52 130.317 18.368 132.141 18.368C133.917 18.368 135.093 19.52 135.093 21.656V29ZM141.745 22.304C141.745 26.456 144.433 29.216 147.817 29.216C149.905 29.216 151.393 28.256 152.185 27.032V29H155.593V11.24H152.185V17.552C151.273 16.304 149.593 15.488 147.841 15.488C144.433 15.488 141.745 18.152 141.745 22.304ZM152.209 22.352C152.209 24.872 150.529 26.264 148.681 26.264C146.881 26.264 145.177 24.824 145.177 22.304C145.177 19.784 146.881 18.44 148.681 18.44C150.529 18.44 152.209 19.832 152.209 22.352ZM161.226 19.4V11.24H160.146V29H161.226V25.592C161.946 27.584 163.89 29.192 166.746 29.192C170.394 29.192 173.034 26.576 173.034 22.472C173.034 18.344 170.394 15.8 166.746 15.8C163.914 15.8 161.994 17.384 161.226 19.4ZM171.93 22.472C171.93 26.072 169.746 28.232 166.578 28.232C163.554 28.232 161.226 26 161.226 22.472C161.226 18.992 163.554 16.736 166.578 16.736C169.746 16.736 171.93 18.872 171.93 22.472ZM177.255 29H178.335V15.968H177.255V29ZM177.807 13.064C178.311 13.064 178.719 12.704 178.719 12.128C178.719 11.576 178.311 11.192 177.807 11.192C177.303 11.192 176.895 11.576 176.895 12.128C176.895 12.704 177.303 13.064 177.807 13.064ZM193.334 29H194.39V21.368C194.39 17.456 192.038 15.704 189.134 15.704C186.974 15.704 185.102 16.712 184.334 18.728V15.968H183.254V29H184.334V21.968C184.334 18.344 186.254 16.64 188.966 16.64C191.582 16.64 193.334 18.272 193.334 21.44V29ZM198.495 22.472C198.495 26.576 201.135 29.192 204.783 29.192C207.639 29.192 209.583 27.584 210.303 25.544V29H211.383V11.24H210.303V19.376C209.535 17.336 207.519 15.8 204.783 15.8C201.135 15.8 198.495 18.344 198.495 22.472ZM210.303 22.472C210.303 26 207.975 28.232 204.927 28.232C201.783 28.232 199.599 26.072 199.599 22.472C199.599 18.872 201.783 16.736 204.927 16.736C207.975 16.736 210.303 18.992 210.303 22.472Z" fill="black"/>
<defs>
<clipPath id="clip0_22_230">
<rect width="50" height="40" fill="white"/>
</clipPath>
</defs>
</svg>
