<svg width="177" height="35" viewBox="0 0 177 35" fill="none" xmlns="http://www.w3.org/2000/svg">
<g clip-path="url(#clip0_29_419)">
<path d="M16.5999 2.80479C8.91286 2.917 4.90225 7.51766 6.57334 13.5771C7.46458 16.8312 9.8041 18.9632 13.0349 19.2998C16.5999 19.7487 20.2763 19.6365 23.8412 19.7487C25.0667 19.7487 26.4036 19.412 27.4062 19.9731C28.5203 20.5342 29.8572 21.6563 30.1914 22.7784C30.5256 24.2371 29.5229 25.6959 27.629 25.8081C20.4991 25.8081 13.3691 25.9203 6.23912 25.8081C4.34522 25.8081 1.78289 22.4417 1.44867 19.5243C0.780233 13.8015 0.446015 7.9665 0.000391879 2.24373C-0.111014 0.336138 0.780233 -0.224918 2.56273 0.111716C7.01896 1.00941 11.5866 1.79488 16.5999 2.80479Z" fill="#88AA4E"/>
<path d="M25.9575 31.4191C33.6445 31.868 36.9867 24.7987 35.3156 20.0858C34.0902 16.495 30.8594 14.363 26.0689 14.2508C22.6154 14.1386 19.1618 14.1386 15.7082 14.2508C13.5915 14.2508 11.5862 13.802 11.5862 11.2211C11.5862 8.64025 13.4801 8.19141 15.7082 8.19141C21.5013 8.19141 27.183 8.19141 32.9761 8.19141C37.3209 8.19141 39.9947 10.4356 40.4403 14.9241C40.9973 20.5346 41.3315 26.033 41.7772 31.6436C41.8886 33.6634 41.1087 34.3366 39.1034 34C34.87 33.1023 30.4138 32.2046 25.9575 31.4191Z" fill="#88AA4E"/>
</g>
<path d="M61.9715 19.156C61.8995 15.502 56.3735 16.636 56.3735 14.818C56.3735 14.242 56.8595 13.864 57.7955 13.864C58.7855 13.864 59.3975 14.386 59.4695 15.16H61.8815C61.7375 13.18 60.2795 11.866 57.8675 11.866C55.4015 11.866 53.9255 13.198 53.9255 14.854C53.9255 18.508 59.5595 17.374 59.5595 19.156C59.5595 19.732 59.0195 20.182 58.0295 20.182C57.0215 20.182 56.3195 19.606 56.2295 18.85H53.6915C53.7995 20.704 55.5455 22.162 58.0475 22.162C60.4775 22.162 61.9715 20.866 61.9715 19.156ZM69.0441 13.936C70.3401 13.936 71.3841 14.764 71.4201 16.078H66.6861C66.8841 14.71 67.8381 13.936 69.0441 13.936ZM73.7781 18.868H71.0601C70.7361 19.534 70.1421 20.074 69.0621 20.074C67.8021 20.074 66.7941 19.246 66.6681 17.77H73.9581C74.0121 17.446 74.0301 17.122 74.0301 16.798C74.0301 13.828 71.9961 11.866 69.1161 11.866C66.1641 11.866 64.1121 13.864 64.1121 17.014C64.1121 20.146 66.2181 22.162 69.1161 22.162C71.5821 22.162 73.2381 20.704 73.7781 18.868ZM75.9415 17.014C75.9415 20.146 77.9935 22.162 80.8735 22.162C83.3575 22.162 85.0315 20.758 85.5715 18.634H82.8535C82.5475 19.534 81.8995 20.002 80.8555 20.002C79.4515 20.002 78.5155 18.958 78.5155 17.014C78.5155 15.07 79.4515 14.008 80.8555 14.008C81.8995 14.008 82.5655 14.548 82.8535 15.394H85.5715C85.0315 13.162 83.3575 11.866 80.8735 11.866C77.9935 11.866 75.9415 13.882 75.9415 17.014ZM97.7676 17.014C97.7676 13.864 95.5176 11.866 92.6376 11.866C89.7576 11.866 87.5076 13.864 87.5076 17.014C87.5076 20.146 89.6856 22.162 92.5656 22.162C95.4636 22.162 97.7676 20.146 97.7676 17.014ZM90.0636 17.014C90.0636 15.016 91.2696 14.062 92.6016 14.062C93.9336 14.062 95.1756 15.016 95.1756 17.014C95.1756 18.994 93.8976 19.966 92.5656 19.966C91.2156 19.966 90.0636 18.994 90.0636 17.014ZM107.32 22H109.84V16.15C109.84 13.396 108.184 11.884 105.862 11.884C104.584 11.884 103.504 12.424 102.856 13.27V12.028H100.336V22H102.856V16.492C102.856 14.89 103.738 14.026 105.106 14.026C106.438 14.026 107.32 14.89 107.32 16.492V22ZM112.308 16.978C112.308 20.092 114.324 22.162 116.862 22.162C118.428 22.162 119.544 21.442 120.138 20.524V22H122.694V8.68H120.138V13.414C119.454 12.478 118.194 11.866 116.88 11.866C114.324 11.866 112.308 13.864 112.308 16.978ZM120.156 17.014C120.156 18.904 118.896 19.948 117.51 19.948C116.16 19.948 114.882 18.868 114.882 16.978C114.882 15.088 116.16 14.08 117.51 14.08C118.896 14.08 120.156 15.124 120.156 17.014ZM126.92 14.8V8.68H126.11V22H126.92V19.444C127.46 20.938 128.918 22.144 131.06 22.144C133.796 22.144 135.776 20.182 135.776 17.104C135.776 14.008 133.796 12.1 131.06 12.1C128.936 12.1 127.496 13.288 126.92 14.8ZM134.948 17.104C134.948 19.804 133.31 21.424 130.934 21.424C128.666 21.424 126.92 19.75 126.92 17.104C126.92 14.494 128.666 12.802 130.934 12.802C133.31 12.802 134.948 14.404 134.948 17.104ZM138.941 22H139.751V12.226H138.941V22ZM139.355 10.048C139.733 10.048 140.039 9.778 140.039 9.346C140.039 8.932 139.733 8.644 139.355 8.644C138.977 8.644 138.671 8.932 138.671 9.346C138.671 9.778 138.977 10.048 139.355 10.048ZM151 22H151.792V16.276C151.792 13.342 150.028 12.028 147.85 12.028C146.23 12.028 144.826 12.784 144.25 14.296V12.226H143.44V22H144.25V16.726C144.25 14.008 145.69 12.73 147.724 12.73C149.686 12.73 151 13.954 151 16.33V22ZM154.871 17.104C154.871 20.182 156.851 22.144 159.587 22.144C161.729 22.144 163.187 20.938 163.727 19.408V22H164.537V8.68H163.727V14.782C163.151 13.252 161.639 12.1 159.587 12.1C156.851 12.1 154.871 14.008 154.871 17.104ZM163.727 17.104C163.727 19.75 161.981 21.424 159.695 21.424C157.337 21.424 155.699 19.804 155.699 17.104C155.699 14.404 157.337 12.802 159.695 12.802C161.981 12.802 163.727 14.494 163.727 17.104Z" fill="black"/>
<defs>
<clipPath id="clip0_29_419">
<rect width="42" height="34" fill="white"/>
</clipPath>
</defs>
</svg>
