<svg width="375" height="432" viewBox="0 0 375 432" fill="none" xmlns="http://www.w3.org/2000/svg">
<path d="M21.2583 -48.451C17.6627 -49.8508 13.8673 -50.2508 10.0719 -49.8508C6.67605 -46.6513 0.683342 -45.8514 -3.91106 -45.4514C-8.50548 -50.0508 -14.2984 -54.2502 -20.0914 -57.2498C-23.8868 -59.2496 -28.4812 -61.2493 -29.6797 -65.4487C-31.6773 -72.0478 -43.0634 -74.8475 -49.8552 -73.2477C-58.4447 -75.6474 -68.2328 -72.6478 -75.2243 -66.8485C-78.2206 -64.4489 -74.8248 -58.2497 -72.2279 -55.2501C-69.6311 -52.2505 -66.2352 -49.0509 -67.0343 -45.2514C-70.2304 -43.6517 -74.625 -43.4517 -78.0209 -43.6517C-80.2182 -43.6517 -82.2158 -44.2516 -84.2133 -43.4517C-86.0112 -43.0517 -87.6092 -40.852 -87.0099 -39.0523C-88.4082 -36.6526 -90.0063 -35.4528 -88.4082 -33.0531C-87.2097 -31.2533 -85.0124 -29.8535 -85.0124 -27.6538C-85.0124 -25.8541 -86.4107 -24.4542 -88.0087 -23.8543C-89.6068 -23.0544 -91.2048 -22.6545 -92.8029 -21.8546C-97.3973 -19.055 -97.3973 -12.4559 -96.798 -7.05658C-93.8017 -3.45706 -93.4022 2.7421 -94.8005 7.14151C-95.3997 8.74129 -96.1988 10.541 -95.5995 12.3408C-95.0002 14.3405 -92.6031 14.9405 -90.8053 15.5404C-86.6104 16.5403 -81.6165 17.5401 -78.4204 14.7405C-69.6311 7.54146 -56.0476 11.141 -44.8612 13.7406C-41.0658 14.5405 -37.0707 15.9403 -34.6736 19.3399C-31.6773 23.7393 -32.8758 29.7385 -35.4727 34.3378C-37.8697 38.9372 -41.4654 43.1367 -43.0634 48.136C-44.4617 52.9353 -44.0622 57.9347 -43.6627 62.734C-43.0634 68.7332 -42.4641 75.1324 -39.0683 80.1317C-35.4727 85.331 -33.0756 93.13 -33.4751 99.3291C-33.6748 104.328 -35.4727 109.528 -35.0731 114.527C-34.2741 123.726 -26.2838 130.725 -18.0938 135.124C-9.50426 139.724 -2.31301 147.723 0.68335 156.921C2.08164 161.521 2.68092 166.52 3.87946 171.119C6.07679 179.318 11.0707 186.517 17.6627 191.917C22.4568 195.716 30.2474 197.116 36.4398 198.116C39.636 198.716 43.0318 199.116 45.2291 201.315C46.2279 202.315 47.0269 203.515 48.2255 204.515C53.2194 209.514 62.608 207.515 67.6019 212.314C69.0002 213.514 69.7992 215.314 70.9978 216.713C74.1939 220.513 79.1878 222.713 83.982 222.313C82.7834 226.112 87.3778 230.512 85.9796 234.111C84.781 237.111 81.5849 238.31 79.1878 240.51C75.1927 244.31 74.5934 250.509 76.1915 255.708C77.9893 260.907 81.5849 265.107 85.1805 269.306C91.9722 276.905 100.162 280.505 107.553 287.504C114.345 293.903 115.943 304.502 114.345 313.7C112.747 322.899 108.752 331.698 105.955 340.697C100.562 357.494 99.1635 375.892 104.357 392.69C109.551 409.487 121.736 424.485 137.916 431.085C139.714 431.884 141.911 430.485 143.31 429.085C144.708 427.685 144.908 425.285 143.909 423.686C140.913 418.286 135.719 413.687 131.924 408.888C130.725 407.288 129.527 405.688 129.527 403.688C129.726 401.488 131.524 399.889 132.922 398.289C134.92 395.689 136.119 392.49 136.119 389.09C136.119 385.891 134.321 382.891 134.321 379.891C134.52 376.892 136.119 373.492 139.115 372.492C140.513 372.092 141.911 372.092 143.31 371.493C147.505 369.693 146.905 363.094 149.902 359.694C151.3 358.094 153.497 357.294 155.295 356.295C163.485 352.295 170.277 344.496 171.076 335.497C171.675 328.298 169.078 319.5 174.472 314.7C179.466 310.301 187.256 313.3 193.848 312.101C196.445 311.701 198.243 309.101 199.641 306.701C200.84 304.302 201.04 301.502 200.64 298.702C200.041 295.303 198.642 292.103 199.042 288.904C199.441 284.304 203.237 280.505 206.033 276.905C209.429 272.506 211.826 267.307 213.025 261.907C214.423 255.708 210.428 248.309 204.835 245.31C199.242 242.31 192.65 242.11 186.258 241.91C179.865 241.71 173.074 241.31 167.88 237.511C163.086 234.111 160.489 228.712 156.693 224.112C150.301 216.513 141.112 212.314 132.123 208.115C128.728 206.515 124.932 204.915 121.536 206.115C120.138 206.515 118.939 207.515 117.541 207.715C113.546 208.514 110.35 204.715 106.954 202.915C99.563 198.916 89.1757 204.715 88.3766 212.914C84.5813 214.314 77.5898 213.114 75.3924 209.714C73.7944 207.315 73.1951 203.915 70.5983 202.715C69.2 202.115 67.4021 202.315 66.2036 201.315C64.206 199.716 65.8041 196.516 66.2036 194.116C66.8029 190.117 63.8065 186.317 60.0111 184.518C56.4155 182.718 52.0209 182.518 48.0257 182.518C44.0306 182.318 39.6359 182.118 36.0403 180.318C28.8491 176.719 26.0525 167.12 29.0488 159.721C32.2449 152.322 40.2352 147.923 48.2255 148.123C56.016 148.323 64.206 154.122 64.206 161.921C64.206 163.92 67.4021 164.12 69.2 163.121C70.9978 162.121 71.7968 160.121 72.1963 158.321C72.5958 156.321 72.5958 154.322 73.1951 152.522C74.5934 148.123 78.9881 144.923 83.5825 144.923C88.3766 144.923 91.7725 140.124 95.1684 136.924C98.5642 133.525 100.562 128.525 99.1635 123.926C98.3645 121.526 96.7664 118.926 97.5654 116.527C98.1647 114.527 100.162 113.527 101.96 112.727C107.154 110.528 112.747 109.528 118.34 109.728C123.134 109.928 125.731 106.928 128.128 102.729C129.926 99.7291 130.725 95.9296 133.522 93.9299C137.717 90.9303 143.709 93.5299 148.903 93.13C156.494 92.5301 162.486 83.9312 160.289 76.7322C159.29 73.1326 156.893 70.333 154.896 67.3334C152.099 63.134 150.301 58.3346 149.303 53.5353C148.304 48.9359 148.104 43.9366 145.108 40.537C140.513 40.737 134.72 40.537 130.725 42.7367C129.926 37.9374 128.927 32.938 126.131 29.1385C123.134 25.3391 117.541 23.1394 113.346 25.539C109.351 27.9387 108.352 33.538 109.151 38.1373C109.95 42.7367 111.748 47.3361 111.748 51.9355C111.548 56.7348 108.352 61.9341 103.558 61.7342C101.161 61.7342 98.9637 60.1344 97.1659 58.3346C94.7688 55.935 92.7713 52.7354 89.5752 51.1356C87.1781 49.9358 84.3815 49.9358 81.7847 49.3358C72.7956 47.3361 66.6031 37.1375 69.2 28.1387C71.597 19.3399 82.1842 13.7406 90.9735 16.5403C101.561 12.7408 105.755 -0.65744 101.561 -11.056C97.3657 -21.4546 85.9796 -27.8538 74.7932 -28.4537C71.597 -28.6537 68.2012 -28.2537 65.0051 -29.0536C56.016 -31.2533 51.2218 -41.252 43.4313 -46.2513C38.8369 -49.4509 27.0513 -46.2513 21.2583 -48.451Z" fill="#97BC59"/>
<path d="M156.992 -65.3103C153.792 -60.4139 157.368 -53.6343 162.074 -50.0562C166.78 -46.4781 172.803 -44.4065 176.567 -39.6984C182.59 -32.3538 180.896 -21.2428 177.508 -12.3916C174.12 -3.35211 169.603 5.68739 170.732 15.1035C171.297 19.6233 173.179 23.7664 175.438 27.7211C177.697 31.4876 180.896 35.0658 185.225 36.0074C190.684 37.3256 196.142 34.1241 200.095 30.3577C204.236 26.5912 207.812 22.0715 212.706 19.6233C219.859 16.0451 229.082 17.3634 235.293 12.467C243.01 6.25235 241.881 -5.42366 243.951 -15.2165C247.528 -31.4122 261.644 -43.4649 267.103 -59.0957C268.232 -62.1089 268.985 -65.3103 268.797 -68.7002C268.609 -79.2462 259.762 -87.9091 249.786 -91.4872C237.552 -95.8187 225.129 -93.1821 212.706 -93.7471C205.93 -94.1237 198.401 -96.9486 191.813 -94.1237C181.649 -89.7923 184.661 -79.8112 177.885 -73.7849C172.238 -68.3235 161.509 -72.2783 156.992 -65.3103Z" fill="#97BC59"/>
<path d="M429.341 -10.0307C423.135 -16.036 412.924 -10.2309 406.518 -4.4257C400.111 1.37946 393.705 6.98444 387.298 12.7896C382.493 17.1935 377.288 21.5974 370.881 22.5983C364.474 23.5992 356.866 19.5956 356.666 13.1899C361.071 8.98621 369.68 15.1917 373.684 10.7878C377.288 6.78426 372.082 1.17928 367.477 -1.42303C359.069 -6.2273 350.46 -11.2318 340.65 -12.633C331.04 -14.0343 320.028 -10.6312 315.023 -2.42393C310.819 4.78248 311.619 13.9907 307.215 21.1971C304.612 25.601 300.208 28.8038 297.205 33.2077C294.201 37.4115 293 43.8172 296.604 47.6206C299.607 50.6232 304.612 50.6232 307.615 53.6259C309.818 56.028 310.618 59.8314 313.622 61.0325C317.025 62.4337 320.829 59.2309 321.63 55.6277C322.431 52.0245 321.229 48.2211 320.629 44.6179C318.827 33.8083 324.433 20.3964 335.244 18.7949C337.646 18.7949 338.647 22.3981 337.446 24.6001C336.245 26.8021 334.243 28.4035 333.042 30.6054C330.839 34.8092 333.442 40.6143 337.847 41.8154C342.652 43.0165 350.46 42.0156 349.859 46.8199C349.258 52.0245 339.649 48.6214 336.645 52.8252C334.844 55.2273 336.445 58.8305 336.445 61.8332C336.445 67.8385 329.838 71.6419 323.832 72.2424C317.826 72.6428 311.82 70.8412 305.813 71.4417C299.807 72.0423 293.401 76.246 293.601 82.2513C285.392 86.0547 276.783 89.2576 267.974 91.6597C268.375 98.0654 280.587 98.666 280.587 105.272C280.587 109.075 275.782 111.277 271.778 110.877C267.974 110.677 263.97 109.075 260.166 110.076C253.559 111.878 251.357 120.886 254.961 126.691C258.565 132.296 265.972 134.698 272.779 134.097C275.382 133.897 278.385 133.097 279.987 131.095C281.588 129.093 281.789 126.29 282.389 123.888C283.991 118.283 288.596 113.679 294.201 112.478C297.405 111.678 301.209 111.678 303.011 108.875C310.218 112.879 315.423 120.485 316.224 128.693C318.627 131.695 323.832 127.892 323.232 124.089C322.631 120.285 319.428 117.683 316.825 114.88C314.222 112.078 312.02 107.874 314.022 104.671C326.435 108.274 336.445 119.084 339.248 131.695C343.653 130.895 346.055 124.889 343.452 121.286C344.854 118.283 349.659 120.085 351.06 122.887C352.462 125.69 352.262 129.493 354.464 132.096C360.27 139.702 376.086 130.494 380.891 138.702C384.295 144.507 376.687 151.313 369.88 151.113C363.273 150.912 357.067 147.109 350.46 146.508C343.052 145.708 335.845 148.911 328.637 149.711C321.229 150.512 312.22 147.71 310.618 140.503C310.218 138.501 310.418 136.5 309.417 134.698C308.016 132.296 304.612 131.695 301.809 132.096C289.597 133.497 277.184 146.108 266.973 139.102C260.567 151.713 244.75 156.317 235.941 167.527C226.331 179.538 227.132 198.154 236.542 210.365C245.751 222.576 262.368 228.381 277.584 226.379C280.988 225.979 284.792 225.178 287.995 226.58C291.198 227.981 293.2 230.984 296.003 233.186C298.606 235.387 303.211 236.589 305.413 233.786C302.81 240.192 303.611 247.598 307.215 253.404C311.219 259.609 318.627 264.413 318.427 271.82C318.427 275.623 316.224 279.026 315.023 282.629C310.218 299.444 330.039 313.057 333.242 330.272C334.043 334.876 334.043 340.481 338.047 343.083C339.849 344.284 342.051 344.484 344.253 344.685C355.265 345.485 369.279 342.082 371.481 331.273C372.082 328.27 371.682 325.067 371.682 321.864C371.882 312.456 377.688 303.448 386.097 299.244C388.299 298.043 390.902 297.242 392.703 295.441C396.708 291.437 395.907 284.831 393.704 279.627C391.702 274.422 388.699 269.218 389.3 263.613C390.501 254.605 400.111 250 407.319 244.596C418.33 236.589 425.738 223.977 427.74 210.565C417.729 213.768 405.317 216.371 397.709 209.164C395.106 206.562 393.504 203.359 391.903 199.956C387.098 189.947 382.493 180.138 377.688 170.129C377.087 168.728 376.487 167.327 376.887 165.926C378.289 162.323 383.894 165.325 385.896 168.528C393.504 180.339 400.311 192.549 406.318 205.361C418.53 203.159 430.342 197.954 440.353 190.548C443.556 188.145 446.759 185.343 447.76 181.54C448.762 177.736 446.759 172.732 442.956 172.131C441.354 171.931 439.952 172.331 438.351 172.331C429.141 173.332 421.133 166.326 414.926 159.12C419.131 154.516 426.538 157.118 432.344 159.72C442.555 164.324 453.166 167.727 464.178 169.529C466.98 169.929 469.783 170.33 472.186 171.731C473.988 172.532 475.389 173.933 476.791 175.134C489.404 186.744 498.813 201.958 503.618 218.573C508.423 219.573 511.827 213.768 512.227 208.764C512.628 203.759 512.027 198.154 515.631 194.751C518.434 191.949 523.038 191.749 525.441 188.546C528.444 184.742 526.842 178.337 530.446 174.934C535.051 170.73 542.258 175.935 544.661 181.54C547.063 187.145 547.864 194.151 553.07 197.554C555.872 197.153 558.475 196.753 561.278 196.353C561.278 210.165 566.083 223.977 574.692 234.987C579.297 232.585 577.295 225.379 574.292 220.975C571.288 216.571 568.485 209.965 572.69 206.762C578.496 206.762 581.099 214.769 586.704 216.17C592.31 217.572 597.315 210.966 596.314 205.161C595.313 199.556 590.508 195.352 585.503 192.549C580.898 187.545 587.505 179.738 594.112 178.537C600.719 177.336 607.926 179.338 613.933 176.335C621.14 172.732 623.543 163.323 621.941 155.516C620.339 147.71 615.734 140.903 611.93 133.897C608.727 127.892 607.126 118.484 613.332 115.881C614.934 115.081 616.936 115.281 618.738 115.081C642.562 114.08 662.383 88.8572 657.578 65.4364C656.577 61.0325 654.975 56.6286 651.772 53.4257C646.166 47.6205 636.556 46.2193 632.151 39.4133C626.946 31.0058 633.353 19.7958 641.761 14.391C649.97 8.98621 660.18 6.58407 667.989 0.378555C669.991 0.378555 671.192 -1.62322 671.592 -3.82518C671.792 -5.02625 671.592 -6.4275 671.592 -7.62856C671.592 -11.2318 674.195 -14.6348 677.598 -15.6357C681.002 -16.6366 685.006 -15.2353 687.008 -12.0325C689.411 -8.2291 688.41 -3.42481 686.608 0.578743C684.806 4.58231 682.404 8.58586 682.003 12.7896C681.603 17.1935 684.005 22.198 688.41 22.7985C693.815 23.399 697.219 16.9933 697.619 11.7887C698.02 6.3839 697.019 0.578735 699.822 -4.02536C704.226 -10.8314 716.238 -12.4328 716.639 -20.6401C716.839 -27.246 708.631 -31.0494 707.029 -37.4551C706.428 -40.0574 707.029 -42.6597 707.229 -45.4622C708.23 -55.2709 703.826 -65.6802 696.018 -71.6855C688.209 -77.891 677.398 -79.8928 667.788 -76.69C664.785 -75.6891 661.782 -74.0876 658.579 -73.2869C653.974 -72.0859 649.169 -72.4862 644.364 -72.6864C635.755 -73.2869 627.346 -73.8875 618.738 -74.488C611.13 -75.0885 602.921 -75.4889 596.314 -71.8857C586.504 -66.6811 580.898 -53.6695 569.687 -52.4684C561.879 -51.4675 554.871 -56.8723 547.464 -59.875C535.651 -64.4791 521.237 -62.2771 511.426 -54.27C507.622 -56.0716 508.824 -61.6766 507.622 -65.6802C506.221 -69.8839 501.816 -72.286 497.412 -72.6864C493.007 -73.0868 488.803 -71.6855 484.599 -70.4844C475.589 -67.4818 465.379 -62.6775 464.578 -53.2691C464.378 -50.6668 464.978 -47.8643 463.777 -45.4622C462.175 -42.0592 457.971 -40.8581 455.368 -38.2558C452.165 -35.0529 451.765 -30.2487 451.564 -25.6446C451.364 -21.2407 451.364 -16.4364 448.762 -12.633C446.159 -8.62946 432.545 -6.82785 429.341 -10.0307Z" fill="#97BC59"/>
</svg>
