<svg width="1378" height="718" viewBox="0 0 1378 718" fill="none" xmlns="http://www.w3.org/2000/svg">
<path d="M369.469 -14.3785C363.985 -16.5133 358.197 -17.1233 352.408 -16.5133C347.229 -11.6337 338.09 -10.4138 331.083 -9.8038C324.076 -16.8183 315.241 -23.2229 306.406 -27.7976C300.618 -30.8474 293.611 -33.8972 291.783 -40.3017C288.736 -50.366 271.371 -54.6357 261.013 -52.1959C247.913 -55.8557 232.986 -51.281 222.323 -42.4366C217.753 -38.7768 222.932 -29.3225 226.893 -24.7478C230.853 -20.1731 236.032 -15.2934 234.813 -9.49881C229.939 -7.05897 223.237 -6.754 218.058 -7.05898C214.707 -7.05898 211.66 -7.97392 208.614 -6.754C205.872 -6.14404 203.435 -2.78926 204.348 -0.0444512C202.216 3.6153 199.779 5.44518 202.216 9.10493C204.044 11.8497 207.395 13.9846 207.395 17.3394C207.395 20.0842 205.262 22.219 202.825 23.134C200.388 24.3539 197.951 24.9638 195.514 26.1838C188.507 30.4535 188.507 40.5178 189.421 48.7522C193.99 54.2419 194.6 63.6962 192.467 70.4058C191.553 72.8456 190.335 75.5904 191.249 78.3352C192.163 81.385 195.818 82.3 198.56 83.2149C204.958 84.7398 212.574 86.2647 217.448 81.995C230.853 71.0157 251.569 76.5054 268.63 80.4701C274.418 81.69 280.511 83.8248 284.167 89.0095C288.736 95.719 286.909 104.868 282.948 111.883C279.292 118.897 273.809 125.302 271.371 132.927C269.239 140.246 269.848 147.871 270.457 155.19C271.371 164.339 272.285 174.099 277.464 181.723C282.948 189.653 286.604 201.547 285.995 211.001C285.69 218.626 282.948 226.555 283.557 234.18C284.776 248.209 296.962 258.883 309.453 265.593C322.553 272.607 333.52 284.806 338.09 298.835C340.222 305.85 341.136 313.474 342.964 320.489C346.315 332.993 353.931 343.972 363.985 352.207C371.296 358.001 383.178 360.136 392.622 361.661C397.496 362.576 402.675 363.186 406.026 366.541C407.55 368.066 408.768 369.895 410.596 371.42C418.212 379.045 432.531 375.995 440.147 383.315C442.28 385.144 443.498 387.889 445.326 390.024C450.201 395.819 457.817 399.173 465.128 398.563C463.301 404.358 470.308 411.068 468.175 416.557C466.347 421.132 461.473 422.962 457.817 426.317C451.724 432.111 450.81 441.566 453.247 449.495C455.989 457.424 461.473 463.829 466.956 470.234C477.314 481.823 489.805 487.312 501.077 497.987C511.435 507.746 513.872 523.91 511.435 537.939C508.998 551.968 502.905 565.387 498.64 579.111C490.414 604.73 488.282 632.788 496.203 658.406C504.124 684.024 522.707 706.898 547.384 716.962C550.126 718.182 553.477 716.047 555.609 713.912C557.742 711.777 558.047 708.117 556.523 705.678C551.954 697.443 544.033 690.429 538.244 683.109C536.417 680.669 534.589 678.229 534.589 675.18C534.893 671.825 537.635 669.385 539.768 666.945C542.814 662.981 544.642 658.101 544.642 652.916C544.642 648.037 541.9 643.462 541.9 638.887C542.205 634.312 544.642 629.128 549.212 627.603C551.344 626.993 553.477 626.993 555.609 626.078C562.007 623.333 561.093 613.269 565.663 608.084C567.795 605.644 571.147 604.425 573.888 602.9C586.379 596.8 596.737 584.906 597.956 571.182C598.87 560.203 594.909 546.783 603.135 539.464C610.751 532.754 622.632 537.329 632.686 535.499C636.646 534.889 639.388 530.925 641.521 527.265C643.349 523.605 643.653 519.335 643.044 515.066C642.13 509.881 639.997 505.001 640.607 500.122C641.216 493.107 647.004 487.312 651.269 481.823C656.448 475.113 660.104 467.184 661.932 458.949C664.065 449.495 657.972 438.211 649.442 433.636C640.911 429.061 630.858 428.756 621.109 428.451C611.36 428.146 601.002 427.537 593.081 421.742C585.77 416.557 581.809 408.323 576.021 401.308C566.272 389.719 552.258 383.315 538.549 376.91C533.37 374.47 527.582 372.03 522.403 373.86C520.27 374.47 518.442 375.995 516.31 376.3C510.217 377.52 505.342 371.725 500.163 368.98C488.891 362.881 473.049 371.725 471.831 384.229C466.042 386.364 455.38 384.534 452.029 379.35C449.591 375.69 448.677 370.505 444.717 368.675C442.584 367.761 439.843 368.066 438.015 366.541C434.968 364.101 437.405 359.221 438.015 355.561C438.929 349.462 434.359 343.667 428.571 340.922C423.087 338.178 416.385 337.873 410.292 337.873C404.199 337.568 397.496 337.263 392.013 334.518C381.045 329.028 376.78 314.389 381.35 303.105C386.224 291.821 398.41 285.111 410.596 285.416C422.478 285.721 434.968 294.566 434.968 306.46C434.968 309.51 439.843 309.815 442.584 308.29C445.326 306.765 446.545 303.715 447.154 300.97C447.763 297.92 447.763 294.871 448.677 292.126C450.81 285.416 457.512 280.537 464.519 280.537C471.831 280.537 477.01 273.217 482.189 268.337C487.368 263.153 490.414 255.528 488.282 248.514C487.063 244.854 484.626 240.889 485.845 237.229C486.759 234.18 489.805 232.655 492.547 231.435C500.468 228.08 508.998 226.555 517.528 226.86C524.84 227.165 528.8 222.59 532.456 216.186C535.198 211.611 536.416 205.817 540.682 202.767C547.079 198.192 556.219 202.157 564.14 201.547C575.716 200.632 584.856 187.518 581.505 176.539C579.981 171.049 576.326 166.779 573.279 162.205C569.014 155.8 566.272 148.48 564.749 141.161C563.226 134.146 562.921 126.522 558.351 121.337C551.344 121.642 542.509 121.337 536.416 124.692C535.198 117.373 533.675 109.748 529.41 103.953C524.84 98.1589 516.31 94.8041 509.912 98.4639C503.819 102.124 502.296 110.663 503.514 117.678C504.733 124.692 507.475 131.707 507.475 138.721C507.17 146.041 502.296 153.97 494.984 153.665C491.328 153.665 487.977 151.225 485.235 148.48C481.58 144.821 478.533 139.941 473.659 137.501C470.003 135.671 465.738 135.671 461.777 134.756C448.068 131.707 438.624 116.153 442.584 102.429C446.24 89.0095 462.387 80.4701 475.791 84.7398C491.938 78.9452 498.335 58.5116 491.938 42.6527C485.54 26.7937 468.175 17.0344 451.115 16.1195C446.24 15.8145 441.061 16.4244 436.187 15.2045C422.478 11.8497 415.166 -3.39922 403.285 -11.0237C396.278 -15.9034 378.303 -11.0237 369.469 -14.3785Z" fill="#97BC59"/>
<path d="M576.476 -40.0907C571.596 -32.6232 577.05 -22.2836 584.227 -16.8266C591.403 -11.3696 600.589 -8.21025 606.33 -1.02996C615.516 10.1713 612.933 27.1168 607.766 40.6157C602.599 54.4019 595.709 68.188 597.432 82.5486C598.293 89.4417 601.163 95.7603 604.608 101.792C608.053 107.536 612.933 112.993 619.535 114.429C627.86 116.44 636.185 111.557 642.213 105.813C648.528 100.068 653.982 93.1754 661.446 89.4417C672.354 83.9847 686.42 85.9951 695.893 78.5276C707.663 69.0496 705.94 51.2425 709.098 36.3075C714.552 11.6074 736.082 -6.77419 744.406 -30.6127C746.129 -35.2081 747.277 -40.0907 746.99 -45.2605C746.703 -61.3444 733.211 -74.5561 717.997 -80.0131C699.338 -86.619 680.392 -82.598 661.446 -83.4597C651.112 -84.0341 639.629 -88.3423 629.582 -84.0341C614.081 -77.4282 618.674 -62.206 608.34 -53.0152C599.728 -44.6861 583.366 -50.7175 576.476 -40.0907Z" fill="#97BC59"/>
<path d="M991.837 44.2164C982.371 35.0577 966.799 43.9111 957.028 52.7646C947.258 61.618 937.487 70.1662 927.716 79.0197C920.388 85.7361 912.449 92.4525 902.678 93.979C892.908 95.5054 881.305 89.3996 881 79.6302C887.717 73.2191 900.846 82.6832 906.953 75.9667C912.449 69.8609 904.51 61.3128 897.488 57.344C884.664 50.017 871.534 42.3846 856.573 40.2476C841.916 38.1106 825.123 43.3005 817.49 55.8175C811.077 66.808 812.299 80.8514 805.581 91.8419C801.612 98.5583 794.895 103.443 790.315 110.159C785.735 116.571 783.903 126.34 789.399 132.14C793.979 136.72 801.612 136.72 806.192 141.299C809.551 144.963 810.772 150.763 815.352 152.595C820.543 154.732 826.344 149.847 827.566 144.352C828.787 138.857 826.955 133.056 826.039 127.561C823.291 111.075 831.84 90.6207 848.329 88.1784C851.993 88.1784 853.519 93.6737 851.687 97.0319C849.855 100.39 846.802 102.832 844.97 106.191C841.611 112.602 845.581 121.455 852.298 123.287C859.626 125.119 871.534 123.592 870.618 130.919C869.702 138.857 855.046 133.667 850.466 140.078C847.718 143.741 850.161 149.237 850.161 153.816C850.161 162.975 840.084 168.775 830.924 169.691C821.764 170.302 812.604 167.554 803.444 168.47C794.284 169.386 784.513 175.797 784.819 184.956C772.3 190.756 759.17 195.641 745.735 199.305C746.346 209.074 764.972 209.99 764.972 220.064C764.972 225.865 757.644 229.223 751.537 228.613C745.735 228.307 739.629 225.865 733.827 227.391C723.751 230.139 720.393 243.877 725.889 252.731C731.385 261.279 742.682 264.942 753.064 264.026C757.033 263.721 761.613 262.5 764.056 259.447C766.498 256.394 766.804 252.12 767.72 248.457C770.162 239.908 777.185 232.887 785.735 231.055C790.62 229.834 796.421 229.834 799.169 225.56C810.161 231.666 818.1 243.267 819.322 255.784C822.986 260.363 830.924 254.562 830.008 248.762C829.092 242.961 824.207 238.992 820.238 234.718C816.268 230.444 812.909 224.033 815.963 219.149C834.894 224.644 850.161 241.13 854.435 260.363C861.153 259.142 864.817 249.983 860.847 244.488C862.985 239.908 870.313 242.656 872.45 246.93C874.587 251.204 874.282 257.005 877.641 260.974C886.496 272.575 910.617 258.531 917.945 271.048C923.136 279.902 911.533 290.282 901.152 289.976C891.076 289.671 881.61 283.87 871.534 282.955C860.237 281.733 849.245 286.618 838.252 287.839C826.955 289.06 813.215 284.786 810.772 273.796C810.161 270.743 810.467 267.69 808.94 264.942C806.803 261.279 801.612 260.363 797.337 260.974C778.712 263.111 759.781 282.344 744.209 271.659C734.438 290.892 710.316 297.914 696.882 315.01C682.225 333.328 683.447 361.72 697.798 380.343C711.843 398.965 737.186 407.819 760.392 404.766C765.582 404.155 771.384 402.934 776.269 405.071C781.154 407.208 784.208 411.788 788.483 415.146C792.452 418.504 799.475 420.336 802.833 416.062C798.864 425.831 800.085 437.127 805.581 445.98C811.688 455.444 822.986 462.771 822.68 474.067C822.68 479.868 819.322 485.058 817.49 490.553C810.161 516.197 840.39 536.957 845.275 563.212C846.497 570.234 846.496 578.782 852.603 582.751C855.351 584.583 858.71 584.888 862.069 585.193C878.862 586.414 900.236 581.225 903.594 564.739C904.51 560.159 903.9 555.275 903.9 550.39C904.205 536.041 913.06 522.303 925.884 515.892C929.243 514.06 933.212 512.839 935.96 510.092C942.067 503.986 940.845 493.911 937.487 485.974C934.433 478.036 929.853 470.098 930.769 461.55C932.601 447.812 947.258 440.79 958.25 432.547C975.043 420.336 986.341 401.102 989.394 380.648C974.127 385.533 955.196 389.501 943.594 378.511C939.624 374.542 937.181 369.657 934.739 364.467C927.411 349.203 920.388 334.244 913.06 318.979C912.144 316.842 911.228 314.705 911.839 312.568C913.976 307.073 922.525 311.652 925.579 316.537C937.181 334.549 947.563 353.172 956.723 372.71C975.348 369.352 993.363 361.414 1008.63 350.119C1013.52 346.455 1018.4 342.181 1019.93 336.381C1021.45 330.58 1018.4 322.948 1012.6 322.032C1010.16 321.727 1008.02 322.337 1005.58 322.337C991.531 323.864 979.318 313.178 969.852 302.188C976.265 295.166 987.562 299.135 996.417 303.104C1011.99 310.126 1028.17 315.315 1044.97 318.063C1049.24 318.674 1053.51 319.284 1057.18 321.421C1059.93 322.642 1062.06 324.779 1064.2 326.611C1083.44 344.318 1097.79 367.52 1105.12 392.86C1112.44 394.386 1117.64 385.533 1118.25 377.9C1118.86 370.268 1117.94 361.72 1123.44 356.53C1127.71 352.256 1134.73 351.95 1138.4 347.066C1142.98 341.265 1140.54 331.496 1146.03 326.306C1153.05 319.895 1164.05 327.832 1167.71 336.381C1171.37 344.929 1172.6 355.614 1180.53 360.804C1184.81 360.193 1188.78 359.583 1193.05 358.972C1193.05 380.037 1200.38 401.102 1213.51 417.893C1220.53 414.23 1217.48 403.239 1212.9 396.523C1208.32 389.807 1204.05 379.732 1210.46 374.847C1219.31 374.847 1223.28 387.059 1231.83 389.196C1240.38 391.333 1248.01 381.258 1246.49 372.405C1244.96 363.857 1237.63 357.446 1230 353.172C1222.98 345.539 1233.05 333.633 1243.13 331.801C1253.2 329.969 1264.2 333.022 1273.36 328.443C1284.35 322.948 1288.01 308.599 1285.57 296.693C1283.13 284.786 1276.1 274.406 1270.3 263.721C1265.42 254.562 1262.98 240.214 1272.44 236.245C1274.88 235.024 1277.94 235.329 1280.69 235.024C1317.02 233.497 1347.25 195.03 1339.92 159.311C1338.39 152.595 1335.95 145.879 1331.07 140.994C1322.52 132.14 1307.86 130.003 1301.14 119.623C1293.2 106.801 1302.97 89.7049 1315.8 81.462C1328.32 73.2191 1343.89 69.5556 1355.8 60.0916C1358.85 60.0916 1360.68 57.0387 1361.29 53.6804C1361.6 51.8487 1361.29 49.7117 1361.29 47.8799C1361.29 42.3846 1365.26 37.1947 1370.45 35.6682C1375.64 34.1418 1381.75 36.2788 1384.8 41.1635C1388.47 46.964 1386.94 54.291 1384.19 60.3969C1381.45 66.5027 1377.78 72.6085 1377.17 79.0197C1376.56 85.7361 1380.22 93.3684 1386.94 94.2843C1395.19 95.2001 1400.38 85.4308 1400.99 77.4932C1401.6 69.2503 1400.07 60.3969 1404.35 53.3752C1411.06 42.9952 1429.38 40.5529 1429.99 28.0359C1430.3 17.9613 1417.78 12.1608 1415.34 2.39143C1414.42 -1.57736 1415.34 -5.54615 1415.64 -9.82024C1417.17 -24.7795 1410.45 -40.6547 1398.54 -49.8134C1386.64 -59.2775 1370.15 -62.3304 1355.49 -57.4457C1350.91 -55.9193 1346.33 -53.4769 1341.45 -52.2558C1334.42 -50.424 1327.1 -51.0346 1319.77 -51.3399C1306.64 -52.2558 1293.81 -53.1717 1280.69 -54.0875C1269.08 -55.0034 1256.56 -55.614 1246.49 -50.1187C1231.53 -42.1812 1222.98 -22.3372 1205.88 -20.5054C1193.97 -18.979 1183.28 -27.2219 1171.99 -31.8012C1153.97 -38.8229 1131.99 -35.4647 1117.02 -23.2531C1111.22 -26.0007 1113.06 -34.5489 1111.22 -40.6547C1109.09 -47.0658 1102.37 -50.7293 1095.65 -51.3399C1088.93 -51.9505 1082.52 -49.8134 1076.11 -47.9817C1062.37 -43.4023 1046.8 -36.0753 1045.58 -21.7266C1045.27 -17.7578 1046.19 -13.4837 1044.35 -9.82024C1041.91 -4.63028 1035.5 -2.79852 1031.53 1.17027C1026.65 6.05494 1026.03 13.3819 1025.73 20.4036C1025.42 27.1201 1025.42 34.4471 1021.45 40.2476C1017.48 46.3534 996.722 49.1011 991.837 44.2164Z" fill="#97BC59"/>
<path d="M1235.28 427.49C1238.15 431.798 1243.03 434.383 1247.91 436.393C1253.65 438.978 1260.83 440.701 1265.99 437.255C1269.44 434.957 1281.5 418.299 1282.36 414.852C1284.08 407.959 1281.78 408.246 1274.89 407.097C1263.41 404.513 1222.36 408.821 1235.28 427.49Z" fill="#97BC59"/>
<path d="M1194.8 425.192C1210.59 454.2 1243.32 473.156 1276.33 472.869C1278.63 470.571 1275.18 466.837 1272.31 465.689C1263.99 462.242 1255.09 460.519 1246.47 457.359C1237.86 454.487 1229.54 449.892 1224.37 442.424C1222.36 439.265 1220.93 435.819 1219.2 432.372C1214.32 422.607 1194.52 398.194 1182.17 404.225C1185.33 410.544 1190.79 418.012 1194.8 425.192Z" fill="#97BC59"/>
<path d="M1281.21 492.687C1276.9 497.569 1272.88 503.313 1266.86 504.749C1263.12 505.611 1259.39 504.749 1255.66 505.611C1244.75 508.196 1242.46 522.557 1244.75 533.471C1247.34 544.385 1252.22 555.586 1248.2 565.925C1247.34 567.936 1246.19 569.946 1246.19 572.244C1246.19 574.829 1248.2 577.127 1250.21 578.85C1259.97 586.318 1274.03 580.86 1284.94 575.116C1295.85 569.372 1308.77 562.766 1319.68 568.798C1331.16 575.116 1332.31 591.2 1339.48 602.114C1345.8 611.879 1359.58 617.624 1369.34 611.592C1372.78 609.582 1375.08 606.422 1377.37 603.263C1382.25 596.944 1387.13 590.338 1392.01 584.02C1398.62 575.691 1405.22 566.5 1406.37 555.873C1408.66 535.481 1390.58 519.11 1374.22 506.473C1373.36 499.867 1372.49 493.261 1369.05 487.517C1362.45 476.028 1348.67 474.879 1352.4 490.963C1341.78 491.251 1333.17 475.454 1321.11 474.018C1307.33 472.295 1290.4 482.347 1281.21 492.687Z" fill="#97BC59"/>
<path d="M812.354 338.845C812.354 347.775 805.102 355.03 796.177 355.03C787.252 355.03 780 347.775 780 338.845C780 329.915 787.252 322.659 796.177 322.659C805.102 322.659 812.354 329.915 812.354 338.845Z" fill="#B0CEF1"/>
<path d="M803 338.659C803 342.521 799.862 345.659 796 345.659C792.138 345.659 789 342.521 789 338.659C789 334.797 792.138 331.659 796 331.659C799.862 331.659 803 334.797 803 338.659Z" fill="white"/>
<path d="M867.817 341.797L851.997 351.098L836.014 341.797L851.997 332.659L867.817 341.797Z" fill="#FCD67A"/>
<path d="M867.817 341.797V360.888L851.997 370.026V351.098L867.817 341.797Z" fill="#ECB942"/>
<path d="M851.997 351.098V370.026L836.014 360.725V341.797L851.997 351.098Z" fill="#DE9D06"/>
<path d="M846.322 354.634L825.3 366.994L804.06 354.634L825.3 342.491L846.322 354.634Z" fill="#FCD67A"/>
<path d="M846.322 354.634V380.005L825.3 392.148V366.994L846.322 354.634Z" fill="#ECB942"/>
<path d="M825.3 366.994V392.148L804.06 379.788V354.634L825.3 366.994Z" fill="#DE9D06"/>
<path d="M867.817 368.835L851.997 378.136L836.014 368.835L851.997 359.697L867.817 368.835Z" fill="#FCD67A"/>
<path d="M867.817 368.835V387.926L851.997 397.064V378.136L867.817 368.835Z" fill="#ECB942"/>
<path d="M851.997 378.136V397.064L836.014 387.763V368.835L851.997 378.136Z" fill="#DE9D06"/>
<path d="M793.976 336.306C793.418 335.19 792.581 333.794 792.023 332.678" stroke="white" stroke-miterlimit="10"/>
<path d="M787.84 325.423C716.159 202.358 561.642 154.918 433.064 217.427" stroke="#B0CEF1" stroke-width="2" stroke-miterlimit="10" stroke-dasharray="2.95 2.95"/>
<path d="M429.438 219.38C428.322 219.939 426.928 220.776 425.812 221.334" stroke="white" stroke-miterlimit="10"/>
<path d="M1211.35 162.845C1211.35 171.775 1204.1 179.03 1195.18 179.03C1186.25 179.03 1179 171.775 1179 162.845C1179 153.915 1186.25 146.659 1195.18 146.659C1204.1 146.659 1211.35 153.915 1211.35 162.845Z" fill="#B0CEF1"/>
<path d="M1202 162.659C1202 166.521 1198.86 169.659 1195 169.659C1191.14 169.659 1188 166.521 1188 162.659C1188 158.797 1191.14 155.659 1195 155.659C1198.86 155.659 1202 158.797 1202 162.659Z" fill="white"/>
<path d="M1063.35 225.845C1063.35 234.775 1056.1 242.03 1047.18 242.03C1038.25 242.03 1031 234.775 1031 225.845C1031 216.915 1038.25 209.659 1047.18 209.659C1056.1 209.659 1063.35 216.915 1063.35 225.845Z" fill="#B0CEF1"/>
<path d="M1054 225.659C1054 229.521 1050.86 232.659 1047 232.659C1043.14 232.659 1040 229.521 1040 225.659C1040 221.797 1043.14 218.659 1047 218.659C1050.86 218.659 1054 221.797 1054 225.659Z" fill="white"/>
<path d="M1027.61 159.19L1005.92 171.945L984 159.19L1005.92 146.659L1027.61 159.19Z" fill="#FCD67A"/>
<path d="M1027.61 159.19V185.371L1005.92 197.903V171.945L1027.61 159.19Z" fill="#ECB942"/>
<path d="M1005.92 171.945V197.903L984 185.148V159.19L1005.92 171.945Z" fill="#DE9D06"/>
<path d="M1254.61 173.19L1232.92 185.945L1211 173.19L1232.92 160.659L1254.61 173.19Z" fill="#FCD67A"/>
<path d="M1254.61 173.19V199.371L1232.92 211.903V185.945L1254.61 173.19Z" fill="#ECB942"/>
<path d="M1232.92 185.945V211.903L1211 199.148V173.19L1232.92 185.945Z" fill="#DE9D06"/>
<path d="M1050.61 174.892L1032.9 185.307L1015 174.892L1032.9 164.659L1050.61 174.892Z" fill="#FCD67A"/>
<path d="M1050.61 174.892V196.27L1032.9 206.503V185.307L1050.61 174.892Z" fill="#ECB942"/>
<path d="M1032.9 185.307V206.503L1015 196.088V174.892L1032.9 185.307Z" fill="#DE9D06"/>
<path d="M1277.61 188.892L1259.9 199.307L1242 188.892L1259.9 178.659L1277.61 188.892Z" fill="#FCD67A"/>
<path d="M1277.61 188.892V210.27L1259.9 220.503V199.307L1277.61 188.892Z" fill="#ECB942"/>
<path d="M1259.9 199.307V220.503L1242 210.088V188.892L1259.9 199.307Z" fill="#DE9D06"/>
<path d="M1247.88 205.094L1235 212.662L1222 205.094L1235 197.659L1247.88 205.094Z" fill="#FCD67A"/>
<path d="M1247.88 205.094V220.629L1235 228.064V212.662L1247.88 205.094Z" fill="#ECB942"/>
<path d="M1235 212.662V228.064L1222 220.496V205.094L1235 212.662Z" fill="#DE9D06"/>
<path d="M572.354 472.845C572.354 481.775 565.102 489.03 556.177 489.03C547.252 489.03 540 481.775 540 472.845C540 463.915 547.252 456.659 556.177 456.659C565.102 456.659 572.354 463.915 572.354 472.845Z" fill="#B0CEF1"/>
<path d="M563 472.659C563 476.521 559.862 479.659 556 479.659C552.138 479.659 549 476.521 549 472.659C549 468.797 552.138 465.659 556 465.659C559.862 465.659 563 468.797 563 472.659Z" fill="white"/>
<path d="M322.615 47.4803C323.452 46.3641 324.288 45.2478 325.404 44.1316" stroke="white" stroke-miterlimit="10"/>
<path d="M330.703 37.9924C419.118 -60.2362 568.057 -74.4682 673.486 6.17968" stroke="white" stroke-miterlimit="10" stroke-dasharray="2.98 2.98"/>
<path d="M676.554 8.69118C677.67 9.52835 678.785 10.3655 679.901 11.2027C679.901 11.2027 680.738 10.0865 682.69 8.13306" stroke="white" stroke-miterlimit="10"/>
<path d="M425 219.659C474.917 228.479 588.727 312.759 554.783 464.659" stroke="#B0CEF1" stroke-width="2" stroke-miterlimit="10" stroke-dasharray="3.02 3.02"/>
<path d="M524.459 422.765L503.501 435.087L482.327 422.765L503.501 410.659L524.459 422.765Z" fill="#FCD67A"/>
<path d="M524.459 422.765V448.057L503.501 460.163V435.087L524.459 422.765Z" fill="#ECB942"/>
<path d="M503.501 435.087V460.163L482.327 447.841V422.765L503.501 435.087Z" fill="#DE9D06"/>
<path d="M545.887 436.922L530.116 446.194L514.182 436.922L530.116 427.812L545.887 436.922Z" fill="#FCD67A"/>
<path d="M545.887 436.922V455.954L530.116 465.064V446.194L545.887 436.922Z" fill="#ECB942"/>
<path d="M530.116 446.194V465.064L514.182 455.792V436.922L530.116 446.194Z" fill="#DE9D06"/>
<path d="M448 220.159C448 230.918 439.259 239.659 428.5 239.659C417.741 239.659 409 230.918 409 220.159C409 209.401 417.741 200.659 428.5 200.659C439.259 200.659 448 209.401 448 220.159Z" fill="#ECB942"/>
<path d="M1317.35 513.845C1317.35 522.775 1310.1 530.03 1301.18 530.03C1292.25 530.03 1285 522.775 1285 513.845C1285 504.915 1292.25 497.659 1301.18 497.659C1310.1 497.659 1317.35 504.915 1317.35 513.845Z" fill="#B0CEF1"/>
<path d="M1308 513.659C1308 517.521 1304.86 520.659 1301 520.659C1297.14 520.659 1294 517.521 1294 513.659C1294 509.797 1297.14 506.659 1301 506.659C1304.86 506.659 1308 509.797 1308 513.659Z" fill="white"/>
<path d="M437 220.159C437 224.849 433.19 228.659 428.5 228.659C423.81 228.659 420 224.849 420 220.159C420 215.47 423.81 211.659 428.5 211.659C433.19 211.659 437 215.47 437 220.159Z" fill="white"/>
<path d="M1046.39 225.799C1045 225.241 1043.88 224.683 1042.49 224.403" stroke="white" stroke-miterlimit="10"/>
<path d="M1034.4 221.613C940.404 191.754 838.601 237.798 798.717 328.771" stroke="#B0CEF1" stroke-width="2" stroke-miterlimit="10" stroke-dasharray="3.03 3.03"/>
<path d="M797.044 332.678C796.486 334.073 795.928 335.19 795.37 336.585" stroke="white" stroke-miterlimit="10"/>
<path d="M1194.77 162.732C1193.38 162.173 1192.26 161.615 1190.87 161.336" stroke="white" stroke-miterlimit="10"/>
<path d="M1183.06 158.825C1130.34 144.593 1074.84 170.266 1051.41 219.659" stroke="#B0CEF1" stroke-width="2" stroke-miterlimit="10" stroke-dasharray="2.9 2.9"/>
<path d="M1049.74 223.566C1049.18 224.962 1048.62 226.078 1048.06 227.473" stroke="white" stroke-miterlimit="10"/>
<path d="M556.064 473.882C556.343 472.486 556.901 471.091 557.179 469.975" stroke="white" stroke-miterlimit="10"/>
<path d="M559.69 461.882C592.043 368.956 689.663 314.818 785.887 337.143" stroke="#B0CEF1" stroke-width="2" stroke-miterlimit="10" stroke-dasharray="3.03 3.03"/>
<path d="M790.071 338.259C791.465 338.538 792.86 339.096 793.975 339.375C793.975 339.375 794.812 338.259 796.765 336.306" stroke="white" stroke-miterlimit="10"/>
<path d="M802.901 330.446C845.574 290.819 1092.5 171.659 1296.5 507.159" stroke="#B0CEF1" stroke-width="2" stroke-miterlimit="10" stroke-dasharray="2.98 2.98"/>
<path d="M1289.39 531.54L1272.28 541.597L1255 531.54L1272.28 521.659L1289.39 531.54Z" fill="#FCD67A"/>
<path d="M1289.39 531.54V552.183L1272.28 562.064V541.597L1289.39 531.54Z" fill="#ECB942"/>
<path d="M1272.28 541.597V562.064L1255 552.007V531.54L1272.28 541.597Z" fill="#DE9D06"/>
<path d="M1306.88 543.094L1294 550.662L1281 543.094L1294 535.659L1306.88 543.094Z" fill="#FCD67A"/>
<path d="M1306.88 543.094V558.629L1294 566.064V550.662L1306.88 543.094Z" fill="#ECB942"/>
<path d="M1294 550.662V566.064L1281 558.496V543.094L1294 550.662Z" fill="#DE9D06"/>
<path d="M1287.14 300.028H1357.42C1360.49 300.028 1362.72 297.517 1362.72 294.726C1362.72 291.657 1360.21 289.424 1357.42 289.424H1287.14C1284.07 289.424 1281.84 291.936 1281.84 294.726C1281.84 297.796 1284.07 300.028 1287.14 300.028Z" fill="#B0CEF1"/>
<path d="M1259.25 309.795H1329.53C1332.6 309.795 1334.83 307.284 1334.83 304.493C1334.83 301.424 1332.32 299.191 1329.53 299.191H1259.25C1256.18 299.191 1253.95 301.703 1253.95 304.493C1253.95 307.563 1256.46 309.795 1259.25 309.795Z" fill="#B0CEF1"/>
<path d="M1238.33 289.703H1308.62C1311.68 289.703 1313.91 287.192 1313.91 284.401C1313.91 281.331 1311.4 279.099 1308.62 279.099H1238.33C1235.26 279.099 1233.03 281.61 1233.03 284.401C1233.03 287.192 1235.26 289.703 1238.33 289.703Z" fill="#B0CEF1"/>
<path d="M1065.64 594.714H995.35C992.282 594.714 990.051 597.226 990.051 600.016C990.051 603.086 992.561 605.318 995.35 605.318H1065.64C1068.7 605.318 1070.94 602.807 1070.94 600.016C1070.94 597.226 1068.42 594.714 1065.64 594.714Z" fill="#B0CEF1"/>
<path d="M1093.25 584.947H1022.96C1019.89 584.947 1017.66 587.459 1017.66 590.249C1017.66 593.319 1020.17 595.551 1022.96 595.551H1093.25C1096.32 595.551 1098.55 593.04 1098.55 590.249C1098.55 587.459 1096.32 584.947 1093.25 584.947Z" fill="#B0CEF1"/>
<path d="M1114.45 605.318H1044.16C1041.09 605.318 1038.86 607.83 1038.86 610.62C1038.86 613.69 1041.37 615.922 1044.16 615.922H1114.45C1117.51 615.922 1119.74 613.411 1119.74 610.62C1119.74 607.551 1117.23 605.318 1114.45 605.318Z" fill="#B0CEF1"/>
<path d="M1109.11 464.426H1179.39C1182.46 464.426 1184.69 466.938 1184.69 469.728C1184.69 472.798 1182.18 475.03 1179.39 475.03H1109.11C1106.04 475.03 1103.81 472.519 1103.81 469.728C1103.81 466.938 1106.32 464.426 1109.11 464.426Z" fill="#B0CEF1"/>
<path d="M701.866 130.659H753.134C755.372 130.659 757 133.265 757 136.159C757 139.343 755.169 141.659 753.134 141.659H701.866C699.628 141.659 698 139.054 698 136.159C698 133.265 699.628 130.659 701.866 130.659Z" fill="#B0CEF1"/>
<path d="M1060.3 475.03H1130.58C1133.65 475.03 1135.88 477.542 1135.88 480.333C1135.88 483.402 1133.37 485.635 1130.58 485.635H1060.3C1057.23 485.635 1055 483.123 1055 480.333C1055 477.263 1057.51 475.03 1060.3 475.03Z" fill="#B0CEF1"/>
<path d="M395.969 611.179H325.683C322.615 611.179 320.384 613.69 320.384 616.481C320.384 619.55 322.894 621.783 325.683 621.783H395.969C399.037 621.783 401.268 619.271 401.268 616.481C401.268 613.69 399.037 611.179 395.969 611.179Z" fill="#B0CEF1"/>
<path d="M75.5851 130.659H5.29933C2.2313 130.659 0 133.171 0 135.961C0 139.031 2.51021 141.263 5.29933 141.263H75.5851C78.6531 141.263 80.8844 138.752 80.8844 135.961C80.8844 133.171 78.6531 130.659 75.5851 130.659Z" fill="#B0CEF1"/>
<path d="M201.388 193.263H152.299C149.231 193.263 147 195.775 147 198.565C147 201.635 149.51 203.868 152.299 203.868H201.388C204.456 203.868 206.687 201.356 206.687 198.565C206.687 195.496 204.456 193.263 201.388 193.263Z" fill="#B0CEF1"/>
<path d="M413.388 526.263H364.299C361.231 526.263 359 528.775 359 531.565C359 534.635 361.51 536.868 364.299 536.868H413.388C416.456 536.868 418.687 534.356 418.687 531.565C418.687 528.496 416.456 526.263 413.388 526.263Z" fill="#B0CEF1"/>
<path d="M225.653 182.659H176.844C173.775 182.659 171.544 185.171 171.544 187.961C171.544 191.031 174.054 193.263 176.844 193.263H225.932C229 193.263 231.231 190.752 231.231 187.961C231.231 184.892 228.721 182.659 225.653 182.659Z" fill="#B0CEF1"/>
<path d="M437.653 515.659H388.844C385.775 515.659 383.544 518.171 383.544 520.961C383.544 524.031 386.054 526.263 388.844 526.263H437.932C441 526.263 443.231 523.752 443.231 520.961C443.231 517.892 440.721 515.659 437.653 515.659Z" fill="#B0CEF1"/>
<path d="M633.707 279.659H584.619C581.551 279.659 579.32 282.171 579.32 284.961C579.32 288.031 581.83 290.263 584.619 290.263H633.707C636.775 290.263 639.007 287.752 639.007 284.961C639.007 282.171 636.775 279.659 633.707 279.659Z" fill="#B0CEF1"/>
<path d="M623.388 290.263H574.299C571.231 290.263 569 292.775 569 295.565C569 298.635 571.51 300.867 574.299 300.867H623.388C626.456 300.867 628.687 298.356 628.687 295.565C628.687 292.775 626.177 290.263 623.388 290.263Z" fill="#B0CEF1"/>
<circle cx="759.985" cy="577.176" r="48" fill="#ECB942"/>
</svg>
