<svg width="354" height="196" viewBox="0 0 354 196" fill="none" xmlns="http://www.w3.org/2000/svg">
<g clip-path="url(#clip0_29_443)">
<path d="M331.61 134.542C330.76 134.301 329.913 134.31 329.074 135.07C328.795 135.323 328.8 135.823 328.526 136.576C331.216 137.298 337.561 136.479 338.576 138.97C338.456 140.972 337.889 140.728 335.353 141.255C335.358 141.755 335.073 141.508 336.917 142.239C337.351 143.235 337.069 143.238 333.539 143.276C331.845 143.294 331.403 141.548 329.57 141.817C328.585 142.078 327.724 140.837 326.741 141.347C320.514 139.914 319.248 140.427 319.222 137.926C319.062 136.177 323.875 137.376 324.57 136.368C324.28 135.621 324.266 134.371 322.86 134.886C319.483 135.923 320.452 134.162 317.775 134.69C315.239 135.218 315.389 135.967 313.409 135.738C306.902 134.557 306.06 135.066 304.646 134.831C302.946 134.349 301.114 134.619 299.428 135.387C300.72 137.374 300.288 136.629 300.733 138.625C300.03 138.882 299.327 139.14 298.621 139.148C298.624 139.398 298.485 139.649 298.911 139.895C311.09 143.266 305.547 139.824 310.061 139.525C311.614 139.509 312.866 137.744 313.175 140.242C313.487 142.99 314.611 142.478 316.87 142.454C321.531 142.654 317.307 143.7 328.745 143.827C330.439 143.809 329.166 143.573 334.264 145.019C334.837 145.763 334.991 147.012 335.143 148.011C335.015 149.262 334.597 149.767 334.176 150.022C329.667 150.82 329.094 150.076 331.931 151.296C332.083 152.295 331.944 152.547 331.662 152.55C329.403 152.574 327.142 152.348 325.013 151.371C322.912 152.894 324.883 152.372 314.582 152.983C314.876 153.98 315.296 153.726 315.581 153.973C319.268 155.434 319.13 155.685 319.273 155.934C311.693 160.017 312.484 154.756 305.87 156.828C305.726 156.579 305.723 156.329 305.579 156.081C305.436 155.832 305.297 156.084 305.161 156.585C305.164 156.836 305.87 156.828 305.87 156.828C306.014 157.077 306.022 157.827 306.163 157.825C319.21 163.188 318.2 161.198 318.656 164.194C314.993 164.984 314.138 164.243 312.311 165.013C309.053 164.047 306.254 166.328 302.844 164.364C302.703 164.365 302.557 163.867 302.551 163.366C304.224 161.348 303.524 161.855 305.071 161.339C301.206 156.378 299.589 163.648 295.216 163.945C292.392 163.976 289.723 165.255 286.894 164.785C284.915 164.556 280.97 165.348 280.547 165.353C279.276 165.367 277.995 164.38 276.876 165.392C275.337 166.659 274.061 166.173 273.089 167.684C272.668 167.939 272.668 167.939 273.086 167.434C274.786 167.916 274.232 168.922 273.704 172.429L273.707 172.68C273.702 172.179 273.419 172.182 275.827 172.907C276.416 175.152 276.267 174.403 276.424 175.902C274.456 176.673 272.615 176.193 270.647 176.964C270.799 177.963 270.791 177.213 274.043 177.678C274.184 177.677 274.331 178.175 274.475 178.424C274.195 178.677 273.915 178.93 273.633 178.933C268.266 178.741 268.548 178.738 266.137 177.763C259.334 175.335 262.331 178.304 252.275 175.41C251.567 175.168 250.997 174.674 250.557 173.178C252.52 171.906 254.79 172.882 260.567 171.82C260.567 171.82 260.836 170.566 260.413 170.571C259.001 170.586 258.873 171.838 257.309 170.854C255.32 169.625 254.787 172.632 252.789 170.653C252.645 170.404 252.366 170.657 252.224 170.659C250.538 171.427 249.406 171.189 245.033 171.486C244.625 172.991 245.195 173.485 245.486 174.233C245.496 175.233 244.932 175.239 244.942 176.239C245.51 176.483 246.08 176.977 247.214 177.465C238.043 178.064 237.625 178.569 234.645 177.1C229.818 174.65 227.58 176.675 224.882 175.204C221.614 173.238 203.826 173.428 203.261 173.434C202.702 173.941 202.283 174.445 201.719 174.451C198.184 173.989 197.627 174.745 193.949 174.034C187.862 172.599 178.553 173.449 177.429 173.961C177.578 174.71 177.727 175.459 177.879 176.457C172.379 177.017 173.511 177.255 172.221 175.518C168.54 174.557 169.536 175.296 163.466 175.361C163.048 175.866 162.494 176.872 161.929 176.878C160.802 177.141 159.993 180.651 158.4 176.916C157.691 176.674 156.985 176.681 156.277 176.439C156.146 177.441 156.285 177.189 157.001 178.182C156.445 178.938 155.872 178.194 155.451 178.449C154.886 178.455 154.322 178.461 153.754 178.217C152.609 176.728 152.891 176.725 152.063 178.485C149.945 178.508 150.515 179.002 149.929 177.007C149.511 177.512 148.954 178.268 148.398 179.024C147.548 178.783 146.552 178.044 145.574 179.055C137.959 179.887 138.654 178.879 135.133 179.667C134.429 179.924 133.585 180.183 132.871 179.441C132.16 178.948 131.609 180.205 130.9 179.962C130.189 179.47 129.632 180.226 128.926 180.233C128.639 179.736 128.212 179.491 127.925 178.994C127.078 179.003 126.388 180.511 125.258 180.523C124.406 180.032 123.266 179.043 122.001 179.557L121.998 179.307L122.142 179.556C122.145 179.806 122.006 180.057 122.006 180.057C117.366 181.858 114.087 178.892 115.224 179.63C114.814 180.885 114.393 181.139 112.84 181.156C107.194 181.217 107.052 181.218 106.482 180.724C105.06 179.739 105.225 181.988 103.094 180.76C100.255 179.29 100.137 181.542 98.8615 181.056C98.0118 180.815 96.3043 179.582 95.468 180.592C93.9338 182.359 92.5087 181.124 90.6681 180.643C88.5692 182.417 84.7441 181.207 82.3522 181.983C81.9313 182.238 81.3613 181.743 81.0709 180.996C81.0494 178.996 81.7473 178.238 82.2986 176.981C82.0135 176.734 81.8643 175.985 81.582 175.988C79.3152 175.262 79.3312 176.763 78.7558 175.769C78.1831 175.024 78.0285 173.776 78.0151 172.525C78.0071 171.775 78.1456 171.523 78.7022 170.767C79.1338 171.513 79.5654 172.258 79.9996 173.254C80.852 173.745 81.5498 172.987 81.9546 171.232C81.5391 171.987 82.639 169.224 84.3439 170.206C84.7701 170.452 85.0578 170.949 85.4759 170.444C85.6144 170.193 85.7529 169.941 85.6037 169.192C83.0518 168.219 83.9043 168.71 82.1887 166.728C83.1689 165.967 86.7036 166.429 86.8448 166.428C87.1271 166.425 87.2737 166.923 87.5614 167.421C87.2871 168.174 87.1539 168.926 87.0208 169.677C88.0224 170.917 89.016 171.407 89.8389 169.147C88.9705 167.155 89.2582 167.653 89.1089 166.904C89.234 165.402 89.948 166.144 90.3634 165.39C90.3527 164.389 90.4805 163.137 90.4671 161.887C90.1821 161.64 89.8944 161.143 89.7532 161.144C86.3623 160.93 87.3532 161.17 86.3811 162.681C85.9656 163.436 85.2597 163.443 85.1078 162.445C84.5244 160.7 83.672 160.209 82.8249 160.218C83.8051 159.457 83.949 159.706 84.2179 158.452C84.4869 157.199 83.2029 155.962 82.7794 155.967C78.68 155.51 79.1089 156.006 78.1287 156.767C74.4421 155.306 73.0142 153.82 69.6394 155.107C68.6673 156.618 69.232 156.612 67.2368 154.883C66.6721 154.889 66.1101 155.145 65.5454 155.151C64.6796 153.409 66.3737 153.391 67.0769 153.133C67.218 153.132 67.3539 152.63 67.4924 152.379C65.9314 151.645 65.9314 151.645 63.2571 152.424C63.6887 153.17 64.2587 153.664 64.1283 154.666C63.9978 155.668 63.2919 155.675 62.8684 155.68C59.4749 155.216 60.0423 155.46 61.723 154.191C61.8507 152.939 61.0037 152.948 61.1315 151.696L61.1341 151.947C61.4138 151.693 61.8373 151.689 61.8293 150.939C61.6721 149.44 62.2341 149.184 62.5111 148.68C62.495 147.18 62.6469 148.179 62.3297 144.931C61.0431 143.444 47.0748 144.344 43.8385 145.379C40.6022 146.414 35.3654 145.219 33.1253 146.994C31.1462 146.765 29.0393 147.788 27.0522 146.809C25.6324 146.074 18.1635 147.405 13.7791 146.701C12.9294 146.46 12.5219 147.965 11.5203 146.726C11.3764 146.477 11.3711 145.977 11.3684 145.727C9.94057 144.241 10.3721 144.987 36.9049 143.952C41.8299 142.399 50.3084 143.058 51.4298 142.296C53.1132 141.278 55.6731 143.001 58.0462 140.474C57.3243 138.982 58.1767 139.473 55.0601 138.506C55.0521 137.755 55.0441 137.005 55.036 136.255C54.1809 135.514 52.4949 136.282 52.3778 138.534C52.2634 141.037 48.0095 139.331 46.872 138.593C47.0186 139.092 46.7255 138.095 46.4431 138.098C40.7774 136.408 36.7075 138.702 31.0605 138.763C31.0605 138.763 9.88431 138.99 8.89341 138.75C9.0319 138.498 9.02655 137.998 9.16772 137.997C9.16772 137.997 24.9766 137.577 28.0824 137.544C31.6118 137.506 29.4834 136.529 32.3069 136.498C40.6336 136.159 39.9304 136.417 42.7512 136.136C44.7249 135.865 43.2998 134.63 48.5259 134.824C48.9494 134.819 49.2291 134.566 49.7938 134.56C49.6473 134.061 49.5034 133.813 49.3623 133.814C48.2275 133.326 46.1018 132.599 44.9778 133.111C42.8682 133.884 42.1516 132.891 41.1688 133.402C37.6582 135.19 34.2378 132.226 32.2775 133.747C29.7363 133.775 27.0674 135.054 24.5155 134.081C23.3835 133.843 22.2568 134.105 20.9862 134.118C12.0976 134.714 15.6162 133.676 14.6333 134.186C13.0911 135.203 11.3863 134.221 9.70027 134.99C7.13233 132.516 7.71043 133.76 6.96169 129.767C9.19905 127.742 30.9613 129.51 35.4602 127.711C38.4114 126.428 37.1543 127.692 42.3724 127.136C42.6547 127.133 42.7932 126.882 43.6242 125.372C43.0568 125.128 42.4894 124.884 41.7782 124.391C40.614 121.152 40.4648 120.404 39.8974 120.16C33.8001 117.724 33.6616 117.975 34.1995 115.468C35.0519 115.96 35.9016 116.201 36.754 116.692C37.0364 116.689 37.5877 115.432 36.8764 114.94C36.5914 114.693 36.0187 113.948 34.6043 113.713C33.0487 113.48 33.3069 111.226 30.4807 111.006C7.17355 110.005 9.03293 112.237 8.01524 109.496C9.26705 107.732 15.9237 109.662 24.0957 108.073C24.2101 105.571 22.1059 106.844 20.8058 104.107C20.3716 103.111 19.8042 102.867 19.3727 102.121C19.2288 101.873 19.2235 101.372 19.0796 101.124C20.1902 99.3612 21.3438 101.6 22.4758 101.838C24.295 100.318 23.3095 100.578 26.5618 101.044C27.4169 101.785 26.8737 103.792 27.4464 104.536C27.878 105.282 27.4678 106.537 27.7609 107.534C29.3272 108.768 29.3272 108.768 31.5726 107.493C30.672 102.5 31.6763 103.99 34.6329 103.208C34.9153 103.205 35.1922 102.702 35.3307 102.451C35.3013 99.6996 35.597 100.947 33.8654 97.4639C33.013 96.9728 32.8933 98.975 32.0489 99.2342C31.4869 99.4903 30.8981 97.2456 29.9125 97.5063C29.4944 98.011 29.0816 99.0159 28.3757 99.0234C23.1522 99.0794 18.9384 101.125 19.311 96.3693C19.6863 91.8632 24.3933 96.3148 28.1702 93.0229C29.8723 93.755 31.7156 94.4856 33.5482 94.2159C34.3926 93.9567 34.2327 92.2076 33.9342 90.7101C32.9273 88.9701 31.7872 87.9819 30.3808 88.4972C30.2342 87.9985 30.0877 87.4999 29.9385 86.7511C27.8128 86.0236 25.6952 86.0463 23.583 86.5691C23.3006 86.5721 23.1648 87.0738 23.0317 87.8256C23.1702 87.574 23.3113 87.5725 21.3376 87.8437L21.3402 88.0938C20.0295 84.3562 10.7629 89.2076 6.90562 84.997C7.17725 83.9936 7.17457 83.7435 7.45424 83.4904C15.7728 82.4009 16.9237 84.3894 19.5872 82.6101C19.5792 81.8599 19.5738 81.3597 19.4246 80.6109C20.4021 79.6 21.5395 80.3382 22.5304 80.5777C23.6598 80.5656 24.6588 81.5553 25.5219 83.0468C26.2278 83.0392 26.9336 83.0316 27.6422 83.2742C31.7416 83.7305 31.6961 79.479 33.2677 81.213C33.4116 81.4615 33.8244 80.4567 33.8217 80.2066C33.8164 79.7064 33.526 78.9592 33.2409 78.7121C33.0998 78.7136 33.2409 78.7121 32.5351 78.7197C32.2474 78.2225 31.6639 76.478 30.3933 76.4916C27.0078 76.778 23.6036 75.3138 20.2261 76.3504C18.817 76.6156 18.5159 74.8681 15.9989 77.1461C12.8663 74.6785 9.48344 75.215 5.81559 75.5044C5.39206 75.5089 5.25089 75.5104 4.24391 73.7704C5.35991 72.5079 6.78505 73.7432 7.76524 72.9823C8.59085 70.9726 7.29081 68.2353 9.12072 67.7154C9.68274 67.4593 8.97954 67.717 12.7859 67.176C13.473 65.4178 13.1558 62.1697 12.0238 61.9317C9.05106 61.2133 12.1703 62.4304 1.84044 60.29C1.13189 60.0475 0.828107 58.0499 1.39013 57.7937C2.65266 57.0299 3.07886 57.2754 5.76118 57.2467C5.60928 56.2479 5.04727 56.504 4.75956 56.0069C4.47185 55.5097 4.46649 55.0095 4.7408 54.2563C11.2214 52.9363 9.09846 52.4588 13.616 52.4104C15.7337 52.3877 17.8379 51.1146 19.9475 50.3417C24.1639 48.5457 23.3437 51.0556 25.0271 50.0371C26.7104 49.0186 27.4485 52.0121 29.2569 49.4916L29.4008 49.7401C28.9746 49.4946 28.8254 48.7459 28.5403 48.4988C27.8318 48.2563 25.8661 49.2778 23.3089 47.8045C21.034 46.3282 19.4971 47.8453 18.7779 46.6025C19.473 45.5946 20.3281 46.3358 21.0313 46.0781C21.7345 45.8205 22.2965 45.5643 23.0024 45.5568C23.383 41.5509 20.7114 42.58 20.1414 42.0858C17.8638 40.3594 16.604 41.3734 13.2185 41.6598C12.2115 39.9198 12.9227 40.4124 9.67304 40.1971C8.54365 40.2092 9.08423 37.9524 9.50508 37.6978C12.3098 35.9169 11.2072 38.4299 12.4429 35.1651C13.9691 32.6477 28.2679 36.2462 31.1977 32.9633C31.8956 32.2055 32.3244 32.7011 39.2473 33.1272C42.0735 33.347 42.0869 34.5974 44.4842 34.3216C50.6878 33.5048 49.7076 34.2657 50.3894 32.0074C54.0278 28.967 55.8898 31.4482 60.8042 28.8944C61.3662 28.6383 61.9309 28.6322 62.4929 28.3761C62.4822 27.3758 62.1998 27.3788 62.0587 27.3803C56.3983 26.1904 45.1258 28.3121 42.9921 26.8342C43.1279 26.3326 43.1225 25.8324 43.2637 25.8309C44.2466 25.3201 45.3679 24.5578 46.3588 24.7973C49.0492 25.5188 49.0438 25.0186 60.6148 24.3944C64.2853 24.3551 62.8521 22.3695 66.3895 23.082C71.906 24.0233 90.3785 21.8245 95.0613 24.0254C95.7699 24.2679 96.6196 24.5089 97.3228 24.2513C98.1672 23.9921 99.0196 24.4832 100.152 24.7212C102.677 23.1934 103.657 22.4326 104.797 23.4208C105.367 23.915 105.918 22.6585 107.335 23.1435C113.137 24.3319 114.815 22.8133 115.665 23.0543C117.511 24.035 119.194 23.0165 119.479 23.2636C121.051 24.9975 125.392 21.6995 130.504 24.396C144.128 17.7471 115.782 20.802 52.5437 22.2299C50.5673 22.251 45.0722 23.3104 42.3872 23.089C39.7022 22.8677 29.6788 22.9751 26.1628 24.2633C25.8858 24.7665 25.6062 25.0196 25.4677 25.2712C22.7666 23.5493 18.6913 25.3438 15.8571 24.3737C15.9956 24.1221 16.1314 23.6204 16.1314 23.6204C18.5341 23.8448 20.9179 22.3186 23.3179 22.2929C24.7297 22.2777 24.5697 20.5287 27.8194 20.744C31.213 21.2078 31.1996 19.9574 37.6963 20.1379C41.5107 20.3472 40.6663 20.6063 43.4523 17.0749C45.1464 17.0567 44.7175 16.5611 45.7325 19.0514C51.3848 19.491 130.988 16.8874 130.988 16.8874C133.106 16.8647 132.384 15.3718 135.772 15.3355C142.69 15.2614 156.101 15.1177 166.831 15.0027C167.819 14.9922 168.799 14.2313 169.649 14.4723C170.64 14.7118 171.625 14.4511 172.47 14.192C174.582 13.6691 174.595 14.9196 176.854 14.8954C194.36 14.7078 193.8 15.214 193.917 12.9618C193.062 12.2206 192.221 12.7298 191.374 12.7389C188.262 12.272 190.684 14.247 186.148 12.5448C186.006 12.5463 185.86 12.0476 185.577 12.0507C185.716 11.7991 185.713 11.549 185.854 11.5475C194.173 10.4579 194.756 12.2024 199.839 12.148C205.627 12.086 205.624 11.8359 206.352 13.829C209.18 14.2989 207.91 14.3125 209.33 15.0477C212.454 16.765 212.023 16.0193 215.978 16.227C218.802 16.1967 218.386 16.9515 220.227 17.432C221.077 17.6731 221.921 17.4139 222.771 17.6549C226.745 19.6132 227.848 17.1003 234.784 18.7768C235.761 17.7658 236.883 17.0035 238.028 18.4919C237.882 17.9932 238.175 18.9905 238.18 19.4907C238.505 23.489 245.372 18.6633 247.943 21.387C249.514 23.121 251.19 21.3522 253.861 20.3232C255.129 20.0595 257.676 20.5324 257.138 23.0393C255.88 24.3034 255.161 23.0605 247.261 23.6454C247.698 24.8912 247.122 23.897 257.436 24.5368C268.597 25.1676 268.727 24.1657 271.703 25.1343C272.411 25.3768 270.15 25.1509 281.02 25.0345C294.293 25.1424 297.727 29.3575 310.835 27.2162C312.212 23.95 312.358 24.4486 314.617 24.4244C316.053 26.66 316.053 26.66 317.467 26.895C319.167 27.377 324.385 26.8209 324.385 26.8209C326.921 26.2935 325.805 27.556 335.684 27.2001C343.446 26.8668 342.037 27.132 343.172 27.6201C343.18 28.3703 343.188 29.1206 342.906 29.1236C341.076 29.6434 331.902 29.9918 329.649 30.5162C329.366 30.5192 329.233 31.271 329.095 31.5226C329.26 33.7718 330.248 33.7613 331.388 34.7495C313.747 35.4387 319.106 34.8811 318.709 37.3865C317.311 38.652 315.465 37.6713 315.937 42.1683C316.363 42.4139 316.792 42.9095 317.218 43.155C317.66 44.9011 316.105 44.6676 315.697 46.1727C316.691 46.6623 317.546 47.4035 318.268 48.8964C318.846 50.1408 319.975 50.1287 320.146 52.8781C320.418 51.8747 320.692 51.1214 320.825 50.3697C321.419 53.1146 320.838 51.6201 323.268 54.3453C323.697 54.8409 323.987 55.5882 324.001 56.8386C324.139 56.587 324.563 56.5825 321.185 57.6191C320.767 58.1238 320.208 58.63 320.226 60.3806C321.657 62.1161 320.951 62.1236 325.466 61.8252C325.748 61.8221 325.887 61.5705 326.305 61.0658C326.15 59.8169 325.998 58.8181 325.849 58.0694C325.849 58.0694 332.487 58.2484 333.34 58.7395C333.622 58.7364 333.912 59.4837 333.776 59.9853C333.507 61.2388 333.505 60.9887 330.266 61.7737C328.998 62.0374 329.136 61.7858 329.169 64.7869C328.476 66.0448 327.61 64.3033 326.774 65.3127C326.92 65.8114 327.067 66.31 327.211 66.5586C328.783 68.2926 328.343 66.7966 328.791 69.0428C325.983 70.5736 323.833 67.5953 323.724 70.5978C323.749 72.8485 323.749 72.8485 322.771 73.8595C320.334 70.384 321.186 70.8751 319.215 71.3964C318.68 74.1534 318.69 75.1538 317.276 74.9188C306.523 72.783 310.177 71.2431 305.255 73.0467C304.983 74.05 305.13 74.5487 305.558 75.0443L305.556 74.7942C304.483 80.0581 305.71 76.0432 309.141 80.0082C310.287 81.4966 311.131 81.2375 316.935 82.6759C317.503 82.92 318.64 83.6581 321.325 83.8795C331.069 84.0252 330.922 83.5266 331.778 84.2677C331.796 86.0183 323.733 84.604 319.791 85.6467C319.24 86.9032 319.677 88.1491 319.408 89.4025C319.136 90.4059 318.867 91.6593 318.596 92.6627C319.592 93.4024 319.32 94.4057 319.363 98.4071C319.656 99.4044 319.947 100.152 320.24 101.149C319.001 104.164 319.422 103.909 321.819 103.633C322.525 103.626 323.228 103.368 323.793 103.362C327.613 104.071 331.278 103.532 335.095 103.991C336.368 104.228 336.227 104.229 336.107 106.231C338.814 108.453 345.153 107.135 348.981 108.595C347.572 108.86 346.733 109.619 346.024 109.377C344.89 108.888 343.909 109.649 343.222 111.407C340.964 111.432 340.106 110.44 337.994 110.963C337.711 110.966 337.429 110.969 337.144 110.722C335.005 108.744 330.783 110.04 329.363 109.305C327.517 108.324 325.69 109.094 323.852 108.864C322.579 108.627 321.175 109.393 319.915 110.407C319.636 110.66 319.5 111.161 319.225 111.915C321.926 113.637 322.065 113.385 320.254 115.655C320.875 120.901 321.003 119.649 330.608 120.046C331.031 120.042 331.311 119.789 331.604 120.786C331.607 121.036 331.468 121.288 331.327 121.289C323.861 122.87 325.384 120.102 320.196 123.409C319.631 123.416 318.912 122.173 318.214 122.93C317.655 123.437 317.087 123.193 316.525 123.449C316.528 123.699 316.536 124.449 316.677 124.448C320.801 127.155 320.502 125.657 322.652 128.636C322.093 129.142 321.531 129.398 320.971 129.904C321.832 131.145 322.543 131.638 323.531 131.627C329.596 131.062 329.333 132.816 331.301 132.044C331.583 132.041 331.871 132.539 331.876 133.039C332.436 132.533 331.336 135.296 331.61 134.542ZM92.7203 29.5529C92.8642 29.8015 93.008 30.0501 93.1492 30.0486C93.9962 30.0395 93.8443 29.0407 94.124 28.7876C93.8497 29.5408 93.277 28.7966 92.7203 29.5529ZM68.0779 101.599C67.7848 100.602 68.3656 102.097 68.6479 102.094C68.9303 102.091 69.0688 101.839 68.9222 101.34C68.7757 100.842 68.2164 101.348 68.0779 101.599ZM291.597 102.956C292.447 103.197 293.291 102.938 293.992 102.431C290.878 101.714 292.862 102.443 291.041 103.713C291.323 103.71 291.184 103.961 291.597 102.956ZM195.763 13.9424L195.758 13.4423C196.483 15.1853 198.169 14.4169 198.872 14.1592C197.74 13.9213 196.749 13.6818 195.763 13.9424ZM22.1615 59.322C21.7353 59.0765 21.4423 58.0791 20.8883 59.0855C21.4583 59.5796 21.8792 59.325 22.1615 59.322C22.0552 62.5746 26.0054 62.2822 26.0241 64.0328C26.0375 65.2832 26.3306 66.2805 26.8953 66.2745C28.8771 66.7534 30.7177 67.234 32.6861 66.4625C32.8273 66.461 32.9631 65.9593 33.1016 65.7077C31.8069 63.4706 31.9561 64.2193 32.5101 63.2129C33.2053 62.205 33.2026 61.955 32.7576 59.9588C26.1037 58.2793 24.4042 57.7973 22.1615 59.322ZM302.471 76.8282L302.474 77.0783C301.896 75.8339 303.158 75.07 303.004 73.8211C302.008 73.0815 301.15 72.0902 300.295 71.349C298.88 71.1141 296.776 72.3872 294.501 70.9109C294.075 70.6653 290.687 70.7016 288.146 70.7288C288.005 70.7303 287.866 70.9819 287.728 71.2335C287.877 71.9823 287.885 72.7325 288.037 73.7314C285.371 75.2606 284.768 71.7655 279.121 71.826C275.592 71.8638 271.927 72.4033 268.381 70.9406C265.84 70.9678 263.299 70.995 260.904 71.5209C263.592 71.9923 265.704 71.4695 266.418 72.2122C267.843 73.4475 268.829 73.1868 275.326 73.3673C278.149 73.3371 276.186 74.6087 280.56 74.3117C284.087 74.0238 283.69 76.5292 286.798 76.746C287.363 76.7399 290.477 77.4569 290.74 75.7033C291.129 72.4477 292.261 72.6857 293.681 73.4208C293.138 75.4275 293.274 74.9258 292.717 75.6821C292.578 75.9337 292.296 75.9368 292.304 76.687C292.869 76.681 293.436 76.925 294.142 76.9174C298.518 76.8705 300.25 80.3536 302.471 76.8282ZM142.145 162.084C141.26 158.592 140.169 162.105 138.179 160.876C137.182 160.136 136.194 160.146 135.35 160.406C130.281 161.711 112.602 158.899 108.953 160.939C107.27 161.957 99.9365 162.786 108.545 162.444C119.413 162.077 133.683 162.925 142.145 162.084ZM193.728 100.754C195.436 101.986 200.795 101.428 225.501 101.163C225.924 101.159 226.492 101.403 226.905 100.398C215.885 99.7658 206.306 101.869 205.145 98.8804C205.278 98.1286 205.27 97.3784 205.403 96.6266C204.119 95.3898 204.828 95.6323 203.142 96.4007C202.721 96.6554 202.151 96.1612 201.876 96.9145C201.884 97.6648 201.89 98.1649 201.898 98.9152C201.48 99.4199 201.203 99.9231 200.779 99.9276C197.82 100.46 195.692 99.4819 193.728 100.754ZM140.299 29.2933C140.432 28.5416 140.144 28.0444 139.862 28.0474C139.153 27.8049 138.304 27.5639 137.6 27.8216C136.335 28.3353 131.522 27.1363 128.283 27.9214C123.776 28.9701 122.495 27.9834 119.826 29.2626C124.786 30.9602 125.617 29.4506 127.892 30.9269C129.737 31.9076 132.409 30.8785 136.223 31.0878C137.776 31.0711 139.042 30.5574 140.299 29.2933ZM280.598 38.295C292.605 38.9167 279.748 38.054 297.259 38.3666C301.497 38.5713 299.792 37.5891 302.328 37.0617C302.61 37.0587 302.61 37.0587 303.023 36.0538C302.599 36.0584 302.173 35.8128 301.891 35.8159C285.658 36.2399 285.792 35.4881 280.598 38.295ZM311.521 91.2378C310.535 91.4985 309.4 91.0104 308.42 91.7712C308.143 92.2744 308.01 93.0262 307.733 93.5294C306.188 94.2963 306.606 93.7916 306.338 95.045C308.49 98.2734 308.732 94.5192 310.296 95.5029C310.306 96.5032 309.606 97.0109 310.046 98.5069C313.442 99.2208 313.018 99.2254 313.41 96.2198C315.245 96.2002 313.974 96.2138 316.665 96.9353C316.947 96.9323 317.354 95.4272 316.641 94.6845C314.526 94.9573 315.66 95.4454 311.521 91.2378ZM49.1972 92.0473C51.6186 94.0223 53.8666 92.9977 56.2693 93.2221C56.6848 92.4673 57.2441 91.9611 57.6596 91.2063C59.4975 91.4367 58.9275 90.9426 60.2248 93.4298C61.2157 93.6693 61.2157 93.6693 61.7724 92.913C61.767 92.4129 61.7644 92.1628 61.6178 91.6641C61.4525 89.4149 63.4504 91.3944 64.5584 89.3816C62.9974 88.648 61.7295 88.9117 56.3622 88.7191C53.6799 88.7478 53.1474 91.7549 50.18 91.5365C50.0362 91.288 49.7592 91.7912 49.1972 92.0473ZM307.483 57.0156C308.501 59.7559 309.897 58.2403 311.183 59.7272C312.198 62.2174 311.487 61.7248 314.46 62.4433C315.152 61.1853 315.709 60.429 316.404 59.4211C316.399 58.9209 316.095 56.9233 315.386 56.6808C312.696 55.9593 310.157 56.2366 307.483 57.0156ZM306.731 39.5157C306.307 39.5202 305.897 40.7752 306.049 41.774C306.206 43.273 306.204 43.0229 313.265 43.1974C313.406 43.1959 313.545 42.9443 313.824 42.6912C313.22 38.946 314.072 39.437 306.731 39.5157ZM306.722 117.801C309.975 118.267 312.937 117.985 315.902 117.953C316.325 117.948 316.605 117.695 317.026 117.441C317.151 115.939 316.863 115.442 315.59 115.205C307.258 115.044 308.107 115.285 306.722 117.801ZM302.943 41.8073C302.653 41.0601 302.363 40.3128 301.939 40.3174C299.96 40.0885 298.125 40.1081 296.297 40.878C295.877 41.1327 295.741 41.6343 295.61 42.6362C295.483 43.8881 302.389 42.8137 302.389 42.8137C302.531 42.8122 302.808 42.309 302.943 41.8073ZM71.4164 31.0318C68.3052 30.5649 65.3539 31.847 62.3892 31.8788C50.9541 32.0013 57.0568 34.9373 70.7185 31.7896C71.0009 31.7865 71.1367 31.2849 71.4164 31.0318ZM69.6755 92.5782C69.6782 92.8283 69.6809 93.0784 69.5424 93.33C69.9659 93.3255 70.2509 93.5725 70.6744 93.568C86.486 93.3986 85.3593 93.6608 85.6309 92.6574C85.6309 92.6574 70.2402 92.5722 69.6755 92.5782ZM321.169 148.41C323.436 149.136 323.569 148.385 324.563 148.874C326.265 149.606 327.813 149.09 329.36 148.573C329.501 148.571 329.499 148.321 329.637 148.07C326.942 146.848 324.246 145.626 321.422 145.656C320.884 148.163 321.018 147.412 321.169 148.41ZM108.673 29.382C106.686 28.4029 106.414 29.4062 103.868 28.9333C100.192 28.4724 100.061 29.4743 98.0742 28.4951C97.2245 28.2541 96.3774 28.2632 95.5358 28.7724C95.5358 28.7724 95.3973 29.024 95.3999 29.2741C95.8369 30.52 95.4107 30.2745 107.69 29.8928C107.973 29.8898 108.252 29.6367 108.673 29.382ZM106.734 164.714C108.716 165.193 120.724 165.815 121.134 164.56C118.446 164.088 110.682 164.172 106.734 164.714ZM307.769 149.554C304.942 149.335 306.075 149.573 303.8 148.096C303.088 147.604 302.255 148.863 298.986 146.897C298.275 146.405 297.284 146.165 296.589 147.173C296.744 148.422 297.17 148.667 297.593 148.663C299.572 148.892 302.114 148.865 303.248 149.353C305.236 150.332 305.236 150.332 307.769 149.554ZM286.922 88.2499C292.158 89.4443 293.426 89.1806 294.542 87.9181C294.255 87.421 294.108 86.9223 293.826 86.9253C291.841 86.1963 289.867 86.4675 287.755 86.9904C287.332 86.9949 287.052 87.248 286.922 88.2499ZM232.319 170.872C233.736 171.357 241.389 174.026 242.923 172.259C238.243 170.308 240.507 170.784 232.319 170.872ZM62.1459 101.413C62.1432 101.163 62.1378 100.663 62.1378 100.663C61.5651 99.9184 60.8565 99.6759 60.2918 99.682C55.7769 99.9804 56.3229 98.2238 53.5235 100.505C53.5235 100.505 53.385 100.756 53.3904 101.257C56.3657 102.225 59.1812 101.445 62.1459 101.413ZM51.5695 76.2648C50.5786 76.0253 49.585 75.5357 49.0444 77.7925C48.7728 78.7958 48.3413 78.0501 48.3627 80.0508C48.3707 80.8011 50.6295 80.7769 51.7562 80.5147C51.7214 77.2636 51.7348 78.514 51.5695 76.2648ZM142.953 92.5435C141.395 92.06 133.622 91.3929 132.362 92.4069C132.794 93.1526 139.432 93.3316 142.953 92.5435ZM58.1334 43.1795C61.5269 43.6434 65.059 43.8556 68.4365 42.819C64.9017 42.3566 61.5135 42.3929 58.1334 43.1795ZM274.922 88.3784C266.161 87.722 266.161 87.722 265.322 88.4813C267.589 89.2073 269.283 89.1892 274.922 88.3784ZM288.249 146.262C288.396 146.761 288.401 147.261 288.404 147.511C290.676 148.737 292.91 146.462 294.051 147.45C294.192 147.449 294.328 146.947 294.469 146.946C294.325 146.697 294.176 145.948 294.176 145.948C291.778 146.224 291.488 145.477 288.249 146.262ZM225.494 166.443C226.626 166.681 227.758 166.919 228.885 166.657C230.153 166.393 231.296 167.631 232.564 167.368C233.549 167.107 233.552 167.357 233.264 166.86C230.568 165.638 228.163 165.164 225.494 166.443ZM49.2633 85.0434C49.2687 85.5436 49.1302 85.7952 49.1329 86.0453L49.2794 86.5439C51.8098 85.5164 54.0766 86.2424 55.6242 85.7256C55.7654 85.7241 55.8932 84.4722 55.467 84.2266C53.3386 83.249 56.1782 84.7192 49.2633 85.0434ZM173.076 163.003C178.302 163.197 176.325 163.218 180.838 162.67C178.15 162.198 175.611 162.475 173.076 163.003ZM31.4648 44.7158C29.7546 43.2334 28.7504 41.7435 27.2081 42.7605C26.7873 43.0151 26.513 43.7684 26.521 44.5186C26.5317 45.519 26.6729 45.5174 30.6231 45.225C30.9055 45.222 31.044 44.9704 31.4648 44.7158ZM194.316 168.778C192.619 168.546 189.649 168.078 187.811 167.847C187.247 167.853 185.87 171.119 194.316 168.778ZM305.599 131.569C307.163 132.553 306.457 132.561 310.98 133.012C311.545 133.006 311.675 132.005 311.67 131.504C310.679 131.265 310.956 130.762 306.864 131.056C306.723 131.057 306.302 131.312 305.599 131.569ZM139.641 165.612C132.583 165.688 133.427 165.429 133.435 166.179C136.823 166.142 138.395 167.876 139.641 165.612ZM31.5747 54.9692C31.0046 54.4751 31.9928 54.4645 26.1993 54.0264C23.9378 53.8005 24.8063 55.7921 24.8063 55.7921C26.2208 56.027 29.7474 55.7391 31.5747 54.9692ZM155.551 161.44C154.832 160.197 154.981 160.946 148.631 161.264C149.766 161.752 154.574 162.451 155.551 161.44ZM106.563 109.191C104.443 108.963 102.32 108.486 100.213 109.509C102.336 109.986 104.453 109.964 106.563 109.191ZM270.93 58.4076C271.25 61.9058 273.069 60.3856 274.616 59.8688C274.899 59.8658 274.603 58.6184 274.459 58.3698C273.186 58.1333 272.056 58.1454 270.93 58.4076ZM291.088 134.476C287.966 133.009 286.027 136.531 287.154 136.269C288.424 136.256 289.695 136.242 291.088 134.476ZM57.5584 134.477C56.698 133.236 55.8536 133.495 55.1424 133.002C53.4617 134.271 54.1649 134.013 52.3323 134.283C54.029 134.515 55.7392 135.997 57.5584 134.477ZM32.8792 44.9507C34.2883 44.6855 35.9878 45.1675 34.962 41.6769C33.8326 41.689 34.5331 41.1813 32.8792 44.9507ZM91.4497 29.5666C84.3883 29.3921 84.3964 30.1424 90.4696 30.3274C90.6107 30.3259 90.8904 30.0728 91.4497 29.5666ZM183.425 101.114C184.001 102.108 184.558 101.352 185.122 101.346C185.831 101.588 186.675 101.329 187.381 101.322C187.805 101.317 187.661 101.069 187.938 100.565C184.824 99.8485 184.683 99.85 183.425 101.114ZM75.0053 89.2697C76.9925 90.2488 76.9925 90.2488 79.0994 89.2258C78.9555 88.9772 78.8116 88.7287 78.5293 88.7317C74.8588 88.771 75.4235 88.765 75.0053 89.2697ZM49.569 74.0352C51.1272 74.5187 51.1272 74.5187 51.9662 73.7594C51.3881 72.515 50.6796 72.2725 49.8379 72.7817C49.6967 72.7832 49.7048 73.5335 49.569 74.0352ZM131.736 165.697C130.319 165.212 129.186 164.974 127.785 165.989C129.203 166.474 130.335 166.712 131.736 165.697ZM275.656 38.3479C274.527 38.36 273.531 37.6204 272.551 38.3812C273.539 38.3706 274.527 38.36 275.656 38.3479ZM185.877 158.614C185.741 159.115 185.456 158.868 189.268 158.828C189.262 158.327 189.547 158.574 185.877 158.614ZM152.764 19.9056C152.908 20.1542 152.626 20.1572 155.308 20.1285C155.305 19.8784 155.729 19.8738 152.764 19.9056ZM227.331 21.6079C228.184 22.0989 229.169 21.8383 230.016 21.8292C229.872 21.5806 230.155 21.5776 227.331 21.6079ZM44.4957 48.578C45.4893 49.0676 46.339 49.3086 47.3219 48.7978C47.4631 48.7963 47.4577 48.2961 47.5962 48.0445C47.732 47.5429 46.3149 47.0578 44.9112 47.8232C44.77 47.8247 44.6316 48.0763 44.4957 48.578ZM55.6395 73.9701C55.4822 72.4711 55.3384 72.2226 54.771 71.9785C54.4886 71.9816 54.2063 71.9846 54.0731 72.7363C53.8015 73.7397 54.9443 74.978 55.6395 73.9701ZM317.303 130.194C318.308 131.683 320.292 132.413 319.983 129.915C319.131 129.424 318.284 129.433 317.303 130.194ZM272.61 136.175C274.168 136.658 274.168 136.658 274.581 135.653C273.02 134.92 272.732 134.423 272.458 135.176C272.458 135.176 272.605 135.675 272.61 136.175ZM63.1821 145.422C63.1901 146.172 62.9078 146.175 64.1864 146.912C64.7538 147.156 65.4596 147.148 65.5874 145.896C65.4409 145.397 65.8644 145.393 63.1821 145.422ZM149.809 165.753C150.797 165.743 151.644 165.734 152.632 165.723C151.782 165.482 150.935 165.491 150.088 165.5C149.947 165.502 149.947 165.502 149.809 165.753ZM241.034 167.277C243.312 169.003 243.029 169.006 243.447 168.502C242.726 167.009 242.726 167.009 241.034 167.277ZM198.872 93.195C199.719 93.1859 200.43 93.6785 201.269 92.9192C200.416 92.4281 199.711 92.4357 198.872 93.195ZM322.11 64.8625C324.654 65.0853 324.233 65.34 324.507 64.5867C323.655 64.0956 322.805 63.8546 322.11 64.8625ZM205.846 19.3369C206.554 19.5794 207.274 20.8223 207.822 19.3157C207.116 19.3233 206.41 19.3309 205.846 19.3369ZM157.288 165.423C156.58 165.18 155.301 164.444 154.75 165.7C155.607 166.692 156.308 166.184 157.288 165.423ZM126.23 165.756C126.224 165.256 126.509 165.503 124.533 165.524C124.68 166.022 124.395 165.775 126.23 165.756ZM239.363 24.4803C240.066 24.2227 240.639 24.9669 241.334 23.959C240.769 23.965 240.202 23.721 239.363 24.4803ZM93.1843 165.109C93.749 165.103 94.6014 165.594 94.8757 164.841C94.3083 164.597 93.7409 164.353 93.1843 165.109ZM165.214 101.309C165.211 101.059 165.352 101.058 163.517 101.077C163.52 101.327 163.379 101.329 165.214 101.309ZM145.669 161.546C144.958 161.053 144.396 161.309 143.975 161.564C144.542 161.808 144.971 162.303 145.669 161.546ZM256.002 88.331C256.004 88.5811 255.863 88.5826 257.557 88.5645C257.696 88.3129 257.837 88.3114 256.002 88.331ZM86.7228 89.1441C85.7265 88.4045 85.7265 88.4045 84.8875 89.1638C85.4602 89.908 86.1688 90.1505 86.7228 89.1441ZM159.272 21.0864C158.688 19.3419 158.283 21.097 158.427 21.3456C158.995 21.5896 158.992 21.3396 159.272 21.0864ZM288.172 59.9737C287.884 59.4766 287.458 59.231 287.042 59.9858C287.466 59.9813 287.889 59.9767 288.172 59.9737ZM285.676 103.77C286.528 104.261 286.528 104.261 286.944 103.507C286.518 103.261 286.089 102.765 285.676 103.77ZM60.9033 38.1476C60.6129 37.4003 60.1867 37.1548 59.63 37.9111C60.1974 38.1551 60.6209 38.1506 60.9033 38.1476ZM19.0101 55.1038C19.0075 54.8538 18.8583 54.105 18.2936 54.1111C17.585 53.8685 17.7396 55.1175 18.1631 55.1129C18.4454 55.1099 18.7278 55.1069 19.0101 55.1038ZM99.7108 89.005C100.987 89.4915 100.563 89.4961 101.264 88.9884C100.691 88.2441 101.115 88.2396 99.7108 89.005ZM92.6494 88.8305C91.9435 88.8381 91.6612 88.8411 91.6639 89.0912C91.6666 89.3413 91.6692 89.5914 91.8104 89.5899C92.1008 90.3371 92.1008 90.3371 92.6494 88.8305ZM294.074 57.4093C294.5 57.6549 294.927 57.9004 295.345 57.3957C294.916 56.9001 294.492 56.9046 294.074 57.4093ZM147.829 165.524C147.121 165.282 147.403 165.279 147.265 165.53C147.406 165.529 147.688 165.526 147.829 165.524ZM233.072 162.11C232.784 161.613 232.502 161.616 232.084 162.121C232.374 162.868 232.798 162.863 233.072 162.11ZM185.073 162.624C184.508 162.63 184.508 162.63 184.511 162.88C185.217 162.873 185.075 162.874 185.073 162.624ZM317.473 119.687C317.332 119.688 317.044 119.191 316.911 119.943C317.479 120.187 317.479 120.187 317.473 119.687ZM48.711 112.562C49.281 113.056 49.1399 113.057 49.5554 112.303C49.273 112.306 49.4142 112.304 48.711 112.562ZM110.942 109.394C111.512 109.888 111.371 109.89 111.648 109.386C111.504 109.138 111.643 108.886 110.942 109.394ZM172.328 93.2293C172.469 93.2278 172.61 93.2262 172.328 93.2293C172.469 93.2278 172.61 93.2262 172.328 93.2293ZM169.363 93.261C169.505 93.2595 169.646 93.258 169.363 93.261C169.505 93.2595 169.646 93.258 169.363 93.261ZM100.036 93.0033C99.7483 92.5062 99.466 92.5092 99.189 93.0124C99.6125 93.0079 99.7537 93.0063 100.036 93.0033ZM66.2498 89.1134C66.2525 89.3634 66.1086 89.1149 66.8145 89.1073C66.8145 89.1073 66.8145 89.1073 66.2498 89.1134ZM73.819 31.2561C73.1105 31.0136 73.2516 31.0121 72.9693 31.0151C73.257 31.5123 73.4008 31.7608 73.819 31.2561ZM281.662 58.5428C281.379 58.5458 281.52 58.5443 281.662 58.5428C281.379 58.5458 281.52 58.5443 281.662 58.5428ZM42.6945 38.5927C42.6971 38.8428 42.556 38.8443 42.5587 39.0944C42.4416 41.3467 43.1341 40.0887 42.6945 38.5927ZM268.019 76.6971C267.311 76.4545 267.593 76.4515 267.314 76.7046C267.596 76.7016 267.878 76.6986 268.019 76.6971ZM270.278 76.6729C269.996 76.6759 270.137 76.6744 270.278 76.6729C269.996 76.6759 270.137 76.6744 270.278 76.6729ZM151.073 20.1738C150.79 20.1769 150.79 20.1769 151.073 20.1738V20.1738ZM65.026 27.5986C64.741 27.3516 64.8821 27.3501 64.8848 27.6001L65.026 27.5986ZM80.582 29.9331C80.4408 29.9346 80.4408 29.9346 80.582 29.9331V29.9331ZM241.803 28.2059C242.086 28.2028 242.086 28.2028 241.803 28.2059V28.2059ZM39.5118 44.6296L39.5091 44.3795C39.2267 44.3825 39.2294 44.6326 39.3733 44.8812C39.3733 44.8812 39.3706 44.6311 39.5118 44.6296ZM20.4192 54.8386C20.1395 55.0917 20.1395 55.0917 20.4219 55.0887L20.4192 54.8386ZM58.8588 58.1785C58.5765 58.1815 58.5792 58.4316 58.723 58.6802C58.723 58.6802 58.8642 58.6787 59.0054 58.6772C59.0027 58.4271 59.0027 58.4271 58.8588 58.1785ZM60.9765 58.1558L60.9791 58.4059C61.2642 58.653 61.5412 58.1498 61.115 57.9042C61.1176 58.1543 61.1176 58.1543 60.9765 58.1558ZM304.521 57.2974C304.801 57.0443 304.804 57.2944 304.521 57.2974V57.2974ZM279.547 58.8155C279.547 58.8155 279.544 58.5654 279.403 58.567C279.12 58.57 279.123 58.8201 279.264 58.8186C279.406 58.817 279.547 58.8155 279.547 58.8155ZM283.795 60.0206C283.51 59.7735 283.51 59.7735 283.513 60.0236L283.795 60.0206ZM305.534 59.5376C305.819 59.7846 305.819 59.7846 305.816 59.5346L305.534 59.5376ZM315.403 71.4373C315.4 71.1872 315.398 70.9371 315.115 70.9401L314.977 71.1917C315.118 71.1902 315.259 71.1887 315.403 71.4373ZM89.6874 89.1124C89.4024 88.8653 89.5436 88.8638 89.2639 89.1169C89.5489 89.364 89.4078 89.3655 89.6874 89.1124ZM63.8927 93.1404C64.1751 93.1374 64.1724 92.8873 63.89 92.8903C63.89 92.8903 63.7488 92.8919 63.6077 92.8934C63.7515 93.1419 63.7515 93.1419 63.8927 93.1404ZM165.69 93.0503C165.693 93.3004 165.693 93.3004 165.975 93.2973L165.69 93.0503ZM205.363 92.8754C205.363 92.8754 205.36 92.6253 205.219 92.6268C204.937 92.6298 204.939 92.8799 205.083 93.1285C205.224 93.127 205.366 93.1254 205.363 92.8754ZM312.781 103.48C312.496 103.233 312.496 103.233 312.499 103.483L312.781 103.48ZM108.681 109.168C108.83 109.917 109.387 109.161 108.963 109.165C108.822 109.167 108.822 109.167 108.681 109.168ZM317.254 112.436C317.683 112.932 317.675 112.181 317.393 112.184L317.254 112.436ZM151.596 121.714C151.313 121.717 151.314 121.717 151.457 121.966C151.457 121.966 151.599 121.964 151.596 121.714ZM46.3065 125.343C46.0268 125.596 46.0241 125.346 46.3092 125.593L46.3065 125.343ZM282.928 124.059C283.075 124.557 282.934 124.559 283.213 124.306C283.208 123.806 283.352 124.054 282.928 124.059ZM292.627 133.209C292.625 132.959 292.625 132.959 292.342 132.962L292.627 133.209ZM296.591 134.167C296.309 134.17 296.311 134.42 296.455 134.669C296.455 134.669 296.596 134.667 296.737 134.666C296.735 134.416 296.591 134.167 296.591 134.167ZM68.3252 137.863C68.3279 138.113 68.3279 138.113 68.469 138.112L68.3252 137.863ZM311.352 154.518C311.357 155.018 311.213 154.77 311.637 154.765L311.352 154.518ZM90.6083 161.885C90.8826 161.132 90.4564 160.887 90.4644 161.637C90.3259 161.888 90.4671 161.887 90.6083 161.885ZM228.978 162.154C228.693 161.907 228.693 161.907 228.698 162.407C228.981 162.404 228.84 162.405 228.978 162.154ZM269.565 168.222C269.844 167.969 269.847 168.219 269.565 168.222V168.222ZM230.625 170.89C230.63 171.39 230.486 171.142 230.91 171.137L230.625 170.89ZM109.146 178.945C109.29 179.193 109.29 179.193 109.287 178.943L109.146 178.945ZM263.057 167.041C262.913 166.793 262.913 166.793 262.916 167.043L263.057 167.041ZM308.267 103.778C308.402 103.277 308.405 103.527 308.261 103.278L308.267 103.778ZM319.296 52.6371C319.16 53.1388 319.158 52.8887 319.44 52.8856L319.296 52.6371ZM43.8292 39.0808C43.6934 39.5825 43.6907 39.3324 43.8319 39.3309L43.8292 39.0808Z" fill="#ECB942"/>
<path d="M27.9794 167.559C28.3869 166.054 28.5281 166.053 37.9868 165.951C39.2573 165.938 42.6482 166.151 42.6482 166.151C46.3402 168.113 51.124 166.561 53.255 167.788C53.1299 169.29 52.2722 168.299 52.0032 169.553C52.2883 169.8 52.4321 170.048 52.7145 170.045C56.1 169.759 57.0802 168.998 57.8021 170.491C57.2481 171.497 56.5396 171.255 55.8337 171.262C53.2872 170.789 50.6156 171.818 48.0691 171.345C45.0964 170.627 43.9911 172.89 39.7559 172.935C36.5089 172.97 35.3795 172.982 33.8453 174.749C33.571 175.502 33.4486 177.254 32.5988 177.013C29.0588 176.051 25.5508 178.089 24.8369 177.347C24.5385 175.849 25.0898 174.593 25.3561 173.089C25.7716 172.335 26.3255 171.328 26.8822 170.572C27.2977 169.817 27.564 168.314 27.9794 167.559C28.1287 168.308 27.9955 169.059 28.4244 169.555C28.8479 169.551 29.2768 170.046 29.695 169.541C29.1222 168.797 28.5495 168.053 27.9794 167.559ZM31.6714 169.52C33.9275 169.246 34.5083 170.74 37.1692 168.711C37.3104 168.71 37.305 168.209 37.2996 167.709C31.2265 167.524 32.0762 167.765 31.6714 169.52Z" fill="#ECB942"/>
<path d="M302.423 177.875C305.519 176.841 305.393 178.343 306.661 178.08C308.35 177.561 311.334 179.28 312.037 179.022C312.878 178.513 313.739 179.754 314.581 179.245C315.422 178.736 316.991 180.22 318.264 180.456C319.112 180.447 319.967 181.188 320.819 181.679C320.963 181.928 321.109 182.427 321.259 183.175C318.752 186.453 315.745 182.484 311.52 183.53C305.042 185.1 284.825 182.565 281.988 181.345C281.983 180.845 281.977 180.345 282.113 179.843C283.658 179.076 288.879 178.77 293.127 179.975C297.661 181.427 298.929 181.164 300.463 179.396C300.317 178.898 300.615 180.395 301.182 180.639C303.585 180.864 302.306 180.127 303.164 181.118C303.164 181.118 303.305 181.117 303.303 180.867C302.73 180.122 303.018 180.62 302.423 177.875Z" fill="#ECB942"/>
<path d="M49.6523 16.0078C50.2089 15.2516 50.9175 15.4941 51.6233 15.4865C57.2757 15.9261 78.9844 12.6924 91.6874 12.3062C92.2521 12.3001 92.8168 12.2941 93.3896 13.0382C93.2511 13.2898 93.2511 13.2898 93.1126 13.5414C83.1267 17.1498 82.386 13.9064 79.8663 15.9342C48.6882 18.269 50.3822 18.2509 49.6523 16.0078Z" fill="#ECB942"/>
<path d="M122.61 12.4751C122.477 13.2268 122.344 13.9785 122.203 13.98C121.782 14.2347 121.222 14.7408 120.796 14.4953C118.244 13.5223 115.714 14.5498 113.311 14.3254C110.909 14.101 108.511 14.3768 106.111 14.4025C104.417 14.4207 103.133 13.1839 99.4762 14.4736C99.1938 14.4766 97.9206 14.2402 97.9152 13.74C97.875 9.98899 99.4387 10.9726 114.688 11.0594C119.208 11.261 120.471 10.4972 122.61 12.4751Z" fill="#ECB942"/>
<path d="M321.631 178.419C324.46 178.889 327.435 179.858 330.275 181.328C330.557 181.325 330.707 182.074 330.992 182.321C331.13 182.069 331.412 182.066 328.879 182.844C329.75 185.085 330.874 184.573 331.871 185.313C332.867 186.052 333.855 186.042 334.846 186.281C335.001 187.53 334.724 188.033 334.447 188.536C333.634 191.796 336.189 193.019 326.248 187.624C325.395 187.133 324.54 186.391 323.688 185.9C323.379 183.403 323.669 184.15 322.526 182.912C322.518 182.161 322.098 182.416 324.916 181.886C324.047 179.894 323.203 180.153 321.78 179.168C321.639 179.17 321.767 177.918 321.631 178.419Z" fill="#ECB942"/>
<path d="M322.599 18.3357C321.483 19.5981 315.844 20.4088 315.844 20.4088C315.428 21.1636 315.151 21.6668 314.874 22.1699C314.31 22.176 314.014 20.9286 313.303 20.4361C308.218 20.2404 307.238 21.0012 304.105 18.5338C304.092 17.2835 304.23 17.0319 304.654 17.0273C305.218 17.0213 318.489 16.8791 318.489 16.8791C321.736 16.8443 322.314 18.0886 322.599 18.3357Z" fill="#ECB942"/>
<path d="M336.469 113.731C335.06 113.996 333.651 114.262 332.101 114.528C332.269 117.028 335.5 115.492 336.651 117.481C334.973 118.999 328.188 118.322 325.775 117.097C323.646 116.119 323.804 117.618 322.791 115.378C321.635 112.89 326.435 112.838 328.126 112.57C330.947 112.29 333.771 112.26 336.469 113.731ZM326.739 114.836C327.317 116.08 328.017 115.572 328.577 115.066C327.86 114.074 327.293 113.83 326.739 114.836Z" fill="#ECB942"/>
<path d="M328.274 47.2888C327.701 46.5446 327.126 45.5504 326.559 45.3063C325.709 45.0653 325.312 47.5706 324.46 47.0795C324.175 46.8325 324.175 46.8325 324.156 45.082C323.024 44.844 322.036 44.8546 321.205 46.3641C319.638 45.1304 318.933 45.1379 319.479 43.3814C324.694 42.5752 331.193 43.0058 332.608 43.2407C332.754 43.7394 332.898 43.9879 332.904 44.4881C333.058 45.7369 331.076 45.2579 332.379 48.2452C332.091 47.7481 332.667 48.7423 331.268 50.0078C330.136 49.7698 328.86 49.2833 327.728 49.0453C328.141 48.0405 328.543 46.0354 328.274 47.2888Z" fill="#ECB942"/>
<path d="M157.081 14.3567C155.941 13.3685 155.941 13.3685 155.642 11.8711C157.051 11.6059 176.813 11.1441 179.786 11.8625C175.854 13.9055 177.964 13.1326 174.855 12.9158C165.815 12.5124 163.567 13.5369 159.75 13.0776C158.764 13.3383 157.92 13.5974 157.081 14.3567Z" fill="#ECB942"/>
<path d="M29.0946 153.04C28.6443 150.544 27.0834 149.811 40.5083 150.917C40.7987 151.665 40.5217 152.168 40.2394 152.171C38.1298 152.944 30.7968 153.773 29.0946 153.04Z" fill="#ECB942"/>
<path d="M288.82 173.268C291.766 171.486 292.216 173.982 292.914 173.225C294.592 171.706 297.57 172.925 301.11 173.887C301.251 173.886 301.257 174.386 301.403 174.884C300.988 175.639 291.665 175.239 289.11 174.016C288.969 174.017 288.964 173.517 288.82 173.268Z" fill="#ECB942"/>
<path d="M28.0698 162.806C28.773 162.548 29.335 162.292 30.0382 162.034C30.0382 162.034 31.122 157.771 31.8681 161.515C32.8617 162.004 33.8472 161.744 34.6916 161.484C36.9423 160.71 41.5984 160.41 42.8797 161.397C38.0985 163.199 33.0269 164.253 28.0698 162.806Z" fill="#ECB942"/>
<path d="M187.31 2.52822C191.567 4.48341 195.802 4.43804 174.202 4.66945C174.756 3.66312 175.185 4.15872 175.609 4.15418C185.771 3.79521 183.379 4.57114 187.31 2.52822Z" fill="#ECB942"/>
<path d="M338.609 168.483C338.494 170.985 337.924 170.491 333.814 169.035C329.848 167.827 329.56 167.329 329.126 166.334C329.534 164.829 329.547 166.079 335.625 166.764C336.614 166.754 337.607 167.243 338.609 168.483Z" fill="#ECB942"/>
<path d="M124.038 13.9604C124.736 13.2026 125.447 13.6952 126.291 13.436C126.851 12.9298 127.69 12.1705 128.246 11.4143C134.748 12.0949 134.746 11.8448 134.618 13.0967C134.621 13.3468 134.061 13.853 133.92 13.8545C130.103 13.3952 130.127 15.6458 127.437 14.9243C126.443 14.4348 125.314 14.4469 124.038 13.9604Z" fill="#ECB942"/>
<path d="M287.557 174.032C286.732 176.042 286.143 173.797 284.172 174.319C283.469 174.576 282.627 175.086 281.918 174.843C280.501 174.358 279.092 174.623 277.672 173.888C275.683 172.659 282.033 172.341 287.405 173.034C287.549 173.282 287.552 173.532 287.557 174.032Z" fill="#ECB942"/>
<path d="M346.741 123.626C350.539 122.335 351.107 122.579 352.673 123.812C352.678 124.312 352.686 125.063 352.55 125.564C352.287 127.318 351.008 126.581 350.864 126.333C349.855 124.343 348.584 124.356 346.741 123.626Z" fill="#ECB942"/>
<path d="M164.038 4.77836C164.706 1.26981 165.439 3.76296 172.079 4.19201C169.123 4.97398 165.878 5.25884 164.038 4.77836Z" fill="#ECB942"/>
<path d="M247.07 19.1448C246.239 20.6543 245.366 18.1627 244.247 19.1751C243.688 19.6813 242.974 18.9386 242.273 19.4463C242.273 19.4463 241.839 18.4506 242.26 18.196C243.384 17.6837 247.044 16.6441 247.07 19.1448Z" fill="#ECB942"/>
<path d="M60.3325 169.463C61.1581 167.454 64.2907 169.921 66.9489 167.642C67.2286 167.389 67.3885 169.138 66.5468 169.647C65.4228 170.159 64.2827 169.171 61.6111 170.2C61.3287 170.203 60.7641 170.209 60.3325 169.463Z" fill="#ECB942"/>
<path d="M252.994 18.5812C253.825 17.0717 255.946 17.2991 257.083 18.0372C257.224 18.0357 257.515 18.7829 257.661 19.2815C256.963 20.0393 256.252 19.5467 255.69 19.8028C255.128 20.0589 254.553 19.0647 254.126 18.8192C253.698 18.3236 253.274 18.3281 252.994 18.5812Z" fill="#ECB942"/>
<path d="M28.8232 114.526C27.9895 115.785 25.72 114.809 24.4361 113.573C24.2949 113.574 24.0018 112.577 24.4227 112.322C25.4055 111.812 26.551 113.3 27.5312 112.539C27.9601 113.035 28.6659 113.027 28.8232 114.526Z" fill="#ECB942"/>
<path d="M201.731 4.37453C203.936 -0.651078 206.382 3.57441 205.54 4.08362C204.701 4.84291 205.404 4.58528 201.731 4.37453Z" fill="#ECB942"/>
<path d="M22.2931 177.124C21.4541 177.884 20.7402 177.141 19.8824 176.15C21.4246 175.133 21.707 175.13 22.2931 177.124Z" fill="#ECB942"/>
<path d="M332.55 182.805C334.665 182.532 334.806 182.53 335.672 184.272C334.548 184.784 334.548 184.784 332.55 182.805Z" fill="#ECB942"/>
<path d="M78.8953 162.511C77.3638 164.529 77.5076 164.777 76.783 163.034C76.775 162.284 76.9081 161.532 76.8974 160.532C76.8894 159.782 77.3102 159.527 77.4541 159.776C78.0295 160.77 78.461 161.516 78.8953 162.511Z" fill="#ECB942"/>
<path d="M332.163 133.536C333.143 132.776 332.715 132.28 334.726 135.51C333.743 136.02 332.896 136.03 332.043 135.538C331.902 135.54 331.756 135.041 331.612 134.793C331.612 134.793 331.335 135.296 332.163 133.536Z" fill="#ECB942"/>
<path d="M18.0472 176.169C17.9221 177.671 17.9221 177.671 17.5013 177.926C16.7954 177.934 16.2227 177.189 15.9269 175.942C16.6301 175.684 17.3307 175.177 18.0472 176.169Z" fill="#ECB942"/>
<path d="M34.076 156.739C30.5493 157.027 30.9755 157.272 30.8236 156.274C30.6771 155.775 31.5268 156.016 34.0707 156.239C34.0707 156.239 34.0733 156.489 34.076 156.739Z" fill="#ECB942"/>
<path d="M238.31 18.4884C239.567 17.2244 239.708 17.2229 240.574 18.9643C239.322 20.7284 238.019 17.7412 238.31 18.4884Z" fill="#ECB942"/>
<path d="M289.412 17.6908C290.248 16.6814 291.668 17.4165 291.109 17.9227C290.829 18.1758 290.555 18.9291 290.131 18.9336C289.849 18.9366 289.423 18.6911 289.412 17.6908Z" fill="#ECB942"/>
<path d="M26.4243 88.2899C26.9783 87.2836 27.6895 87.7762 28.2595 88.2703C28.4329 91.2696 27.5751 90.2784 26.4243 88.2899Z" fill="#ECB942"/>
<path d="M297.815 169.42C294.85 169.452 295.415 169.446 295.13 169.199C295.407 168.696 294.842 168.702 297.812 169.17C297.953 169.169 297.953 169.169 297.815 169.42Z" fill="#ECB942"/>
<path d="M321.628 178.169C320.654 179.43 321.218 179.424 318.235 177.705C319.647 177.69 320.627 176.93 321.628 178.169Z" fill="#ECB942"/>
<path d="M59.8573 151.46C58.7413 152.723 58.467 153.476 57.8755 150.981C59.407 148.964 59.7242 152.212 59.8573 151.46Z" fill="#ECB942"/>
<path d="M76.397 166.54C76.8098 165.535 77.3745 165.529 77.8007 165.775C77.9419 165.773 77.9472 166.273 78.0911 166.522C78.2376 167.021 77.1082 167.033 76.8259 167.036C76.6847 167.037 76.5382 166.539 76.397 166.54Z" fill="#ECB942"/>
<path d="M40.4473 26.6118C39.7415 26.6194 38.7586 27.1301 39.0276 25.8767C39.2992 24.8734 40.1489 25.1144 40.4473 26.6118Z" fill="#ECB942"/>
<path d="M46.0195 151.359C45.7505 152.612 44.6238 152.874 44.6158 152.124C44.6131 151.874 44.6104 151.624 44.7516 151.622C45.1671 150.868 45.1671 150.868 46.0195 151.359Z" fill="#ECB942"/>
<path d="M334.835 132.507C335.101 131.004 335.81 131.246 335.815 131.746C335.818 131.997 335.823 132.497 335.685 132.748C335.546 133 335.125 133.254 334.835 132.507Z" fill="#ECB942"/>
<path d="M322.611 164.403C322.046 164.409 321.481 164.415 320.916 164.421C320.765 163.422 321.188 163.417 321.329 163.416C322.885 163.649 322.334 164.906 322.611 164.403Z" fill="#ECB942"/>
<path d="M290.216 13.6806C289.657 14.1868 289.233 14.1913 288.663 13.6972C289.223 13.1911 289.787 13.185 290.216 13.6806Z" fill="#ECB942"/>
<path d="M78.6673 180.772C77.394 180.536 77.5379 180.784 77.5325 180.284C78.8031 180.271 78.5207 180.274 78.6673 180.772Z" fill="#ECB942"/>
<path d="M196.084 4.43504C194.952 4.19707 195.093 4.19556 195.093 4.19556C196.223 4.18346 196.082 4.18497 196.084 4.43504Z" fill="#ECB942"/>
<path d="M303.1 175.116C303.526 175.362 303.393 176.114 303.108 175.867C302.826 175.87 302.682 175.621 302.818 175.119C302.959 175.118 303.1 175.116 303.1 175.116Z" fill="#ECB942"/>
<path d="M164.762 177.849C164.752 176.849 164.61 176.85 165.175 176.844L165.18 177.344C165.042 177.596 164.903 177.847 164.762 177.849Z" fill="#ECB942"/>
<path d="M335.972 172.763C335.969 172.513 335.967 172.263 336.108 172.262C336.387 172.009 336.529 172.007 336.814 172.254C337.101 172.751 336.55 174.008 335.972 172.763Z" fill="#ECB942"/>
<path d="M338.474 142.723C338.754 142.47 338.612 142.471 339.183 142.965C338.908 143.719 338.762 143.22 338.474 142.723Z" fill="#ECB942"/>
<path d="M326.139 58.817C326.274 58.3154 325.153 59.0777 324.428 57.3347C324.013 58.0895 325.555 57.0726 326.139 58.817Z" fill="#ECB942"/>
<path d="M277.002 19.0743C276.72 19.0773 276.568 18.0785 276.994 18.3241C277.135 18.3226 277.279 18.5711 277.423 18.8197C277.423 18.8197 277.143 19.0728 277.002 19.0743Z" fill="#ECB942"/>
<path d="M27.0912 18.7505C26.673 19.2552 26.9581 19.5022 26.3853 18.758C26.9473 18.5019 26.8062 18.5034 27.0912 18.7505Z" fill="#ECB942"/>
<path d="M292.057 14.1611C293.053 14.9007 291.506 15.4175 291.777 14.4142C291.918 14.4127 292.06 14.4112 292.057 14.1611Z" fill="#ECB942"/>
<path d="M147.172 11.9619C147.457 12.2089 147.742 12.4559 147.603 12.7075C147.193 13.9624 146.333 12.7211 146.61 12.218C146.751 12.2165 147.031 11.9634 147.172 11.9619Z" fill="#ECB942"/>
<path d="M280.989 180.355C280.997 181.106 280.717 181.359 280.422 180.111C280.422 180.111 280.56 179.86 280.558 179.61C280.701 179.858 280.845 180.107 280.989 180.355Z" fill="#ECB942"/>
<path d="M149.156 12.6909L149.012 12.4423C149.154 12.4408 149.151 12.1907 149.292 12.1892C149.436 12.4378 149.439 12.6879 149.156 12.6909Z" fill="#ECB942"/>
<path d="M7.22387 35.7218C7.36504 35.7202 7.36237 35.4702 7.50354 35.4687C7.92974 35.7142 7.65543 36.4674 7.36772 35.9703C7.22655 35.9718 7.22655 35.9718 7.22387 35.7218Z" fill="#ECB942"/>
<path d="M329.846 101.797C330.128 101.794 330.125 101.544 330.131 102.044L329.846 101.797Z" fill="#ECB942"/>
<path d="M331.826 102.026C331.684 102.027 331.687 102.277 331.543 102.029C331.399 101.78 331.399 101.78 331.682 101.777C331.823 101.776 331.823 101.776 331.826 102.026Z" fill="#ECB942"/>
<path d="M338.906 117.207C338.909 117.457 338.909 117.457 338.627 117.46L338.906 117.207Z" fill="#ECB942"/>
<path d="M46.8764 139.094C46.0428 140.353 46.3224 140.1 45.8909 139.355C46.1705 139.101 45.8882 139.104 46.8764 139.094Z" fill="#ECB942"/>
<path d="M42.9104 151.142C42.9104 151.142 42.9131 151.392 43.0539 151.39C42.9131 151.392 42.9158 151.642 42.775 151.644C42.6315 151.395 42.7696 151.143 42.9104 151.142Z" fill="#ECB942"/>
<path d="M79.8564 160C79.5744 160.003 79.7154 160.002 79.7127 159.752L79.8564 160Z" fill="#ECB942"/>
<path d="M68.7739 166.623C68.4884 166.375 68.4884 166.375 68.7739 166.623V166.623Z" fill="#ECB942"/>
<path d="M324.879 165.129C324.591 164.881 324.734 164.88 324.879 165.129V165.129Z" fill="#ECB942"/>
<path d="M279.726 167.863L279.728 168.113C279.449 168.367 279.446 168.117 279.302 167.868C279.582 167.615 279.441 167.616 279.726 167.863Z" fill="#ECB942"/>
<path d="M258.675 179.844C258.391 179.597 258.391 179.597 258.672 179.594L258.675 179.844Z" fill="#ECB942"/>
<path d="M266.03 181.016C266.165 180.514 266.025 180.516 266.309 180.763C266.314 181.263 266.455 181.262 266.03 181.016Z" fill="#ECB942"/>
<path d="M330.85 182.322C330.991 182.321 330.994 182.571 331.135 182.57C330.712 182.574 330.989 182.071 330.85 182.322Z" fill="#ECB942"/>
<path d="M300.599 178.895C300.736 178.393 300.736 178.393 300.599 178.895V178.895Z" fill="#ECB942"/>
<path d="M77.9262 177.529C78.0724 178.027 78.0724 178.027 77.7908 178.03L77.9262 177.529Z" fill="#ECB942"/>
<path d="M80.9608 170.744C80.816 170.494 80.816 170.494 80.9608 170.744V170.744Z" fill="#ECB942"/>
<path d="M322.469 164.404C322.755 164.652 322.755 164.652 322.469 164.404V164.404Z" fill="#ECB942"/>
<path d="M302.123 163.121C301.842 163.124 301.701 163.126 301.836 162.624L301.977 162.623C302.123 163.121 302.129 163.622 302.123 163.121Z" fill="#ECB942"/>
<path d="M23.5394 161.604C23.5447 162.104 23.6838 161.853 23.4003 161.856L23.5394 161.604Z" fill="#ECB942"/>
<path d="M23.0308 87.826C23.1756 88.0746 23.1783 88.3246 23.0308 87.826V87.826Z" fill="#ECB942"/>
<path d="M21.3346 87.5941C21.1978 88.0958 21.1978 88.0958 21.3346 87.5941V87.5941Z" fill="#ECB942"/>
<path d="M305.848 75.792C305.845 75.5419 305.983 75.2904 305.983 75.2904C306.124 75.2889 306.127 75.5389 305.848 75.792Z" fill="#ECB942"/>
<path d="M332.382 48.4962C332.521 48.2437 332.521 48.2437 332.382 48.4962V48.4962Z" fill="#ECB942"/>
<path d="M252.851 18.3326C252.714 18.8343 252.992 18.3311 252.851 18.3326V18.3326Z" fill="#ECB942"/>
<path d="M249.612 19.1176C249.606 18.6175 249.465 18.619 249.75 18.866L249.612 19.1176Z" fill="#ECB942"/>
<path d="M203.453 99.1491C203.591 98.8975 203.586 98.3974 203.724 98.1458C204.14 97.391 204.443 99.3886 203.879 99.3946C203.74 99.6462 203.596 99.3977 203.453 99.1491Z" fill="#ECB942"/>
</g>
<defs>
<clipPath id="clip0_29_443">
<rect width="350.98" height="190.825" fill="white" transform="translate(0.392334 4.2807) rotate(-0.613813)"/>
</clipPath>
</defs>
</svg>
